<svg width="1240" height="40" viewBox="0 0 1240 40" fill="none" xmlns="http://www.w3.org/2000/svg">
<path d="M66.0245 13.2999C66.9559 13.3017 67.8744 13.5172 68.7095 13.9297C69.5445 14.3422 70.2738 14.9407 70.8411 15.6792C70.8612 15.706 70.8866 15.7283 70.9157 15.7449C70.9448 15.7615 70.9769 15.7719 71.0102 15.7756C71.0435 15.7793 71.0772 15.7761 71.1092 15.7662C71.1412 15.7563 71.1708 15.74 71.1963 15.7183L73.2245 14.1025C73.2504 14.0818 73.272 14.0561 73.2881 14.0271C73.3041 13.998 73.3142 13.966 73.3178 13.933C73.3214 13.9 73.3185 13.8666 73.3092 13.8348C73.2999 13.8029 73.2844 13.7732 73.2636 13.7474C72.4003 12.6273 71.2913 11.7205 70.022 11.0968C68.7527 10.4731 67.3571 10.1491 65.9428 10.15C60.6467 10.15 56.3522 14.7133 56.3522 20.3242C56.3522 25.9351 60.6609 30.4984 65.9428 30.4984C67.3569 30.5032 68.753 30.1813 70.0222 29.5579C71.2915 28.9346 72.3995 28.0265 73.26 26.9046C73.2816 26.8789 73.2977 26.8491 73.3072 26.817C73.3168 26.7848 73.3197 26.7511 73.3157 26.7178C73.3117 26.6845 73.3009 26.6524 73.284 26.6235C73.2671 26.5945 73.2444 26.5693 73.2174 26.5495L71.1927 24.9514C71.1669 24.9306 71.1371 24.9151 71.1053 24.9058C71.0734 24.8965 71.04 24.8936 71.007 24.8972C70.974 24.9008 70.942 24.911 70.913 24.927C70.8839 24.943 70.8582 24.9646 70.8375 24.9905C70.2673 25.7242 69.5377 26.3187 68.7039 26.7291C67.8701 27.1394 66.9538 27.3549 66.0245 27.3592C62.4049 27.3592 59.5739 24.2696 59.5739 20.3313C59.5739 16.393 62.4049 13.2999 66.0245 13.2999Z" fill="white"/>
<path d="M75.8776 9.57097H78.4209C78.4878 9.57097 78.5519 9.59753 78.5992 9.64482C78.6465 9.6921 78.6731 9.75623 78.6731 9.82311V29.9869C78.6731 30.0528 78.6469 30.1161 78.6003 30.1627C78.5536 30.2093 78.4904 30.2355 78.4245 30.2355H75.8812C75.8143 30.2355 75.7502 30.2089 75.7029 30.1616C75.6556 30.1144 75.629 30.0502 75.629 29.9833V9.82311C75.6285 9.79016 75.6346 9.75746 75.6469 9.72688C75.6592 9.69631 75.6774 9.66849 75.7005 9.64503C75.7237 9.62157 75.7513 9.60294 75.7817 9.59022C75.8121 9.57751 75.8447 9.57097 75.8776 9.57097Z" fill="white"/>
<path d="M87.3399 16.5456C83.969 16.5456 80.559 18.932 80.559 23.4953C80.559 27.5046 83.4753 30.5303 87.3399 30.5303C91.2045 30.5303 94.1492 27.5046 94.1492 23.4953C94.1492 19.486 91.2223 16.5456 87.3399 16.5456ZM91.0802 23.4953C91.0802 25.8107 89.4711 27.5579 87.3399 27.5579C85.2087 27.5579 83.6316 25.8107 83.6316 23.4953C83.6316 21.1799 85.2264 19.5179 87.3399 19.5179C89.4534 19.5179 91.0802 21.2261 91.0802 23.4953Z" fill="white"/>
<path d="M107.857 16.8366H105.314C105.281 16.8361 105.248 16.8422 105.217 16.8545C105.187 16.8668 105.159 16.885 105.135 16.9082C105.112 16.9313 105.093 16.9588 105.081 16.9892C105.068 17.0196 105.061 17.0523 105.061 17.0852V23.8325C105.061 26.4675 103.243 27.4015 101.683 27.4015C100.305 27.4015 98.9162 26.361 98.9162 24.0349V17.0852C98.9162 17.0523 98.9097 17.0196 98.897 16.9892C98.8843 16.9588 98.8656 16.9313 98.8422 16.9082C98.8187 16.885 98.7909 16.8668 98.7603 16.8545C98.7297 16.8422 98.697 16.8361 98.664 16.8366H96.1208C96.0548 16.8366 95.9916 16.8628 95.945 16.9094C95.8983 16.956 95.8721 17.0193 95.8721 17.0852V24.3652C95.8721 28.3603 97.6801 30.5585 100.966 30.5585C102.159 30.5585 104.092 29.8731 104.816 28.3603L105.061 28.41V29.9868C105.061 30.0536 105.088 30.1178 105.135 30.165C105.182 30.2123 105.247 30.2389 105.314 30.2389H107.857C107.924 30.2389 107.988 30.2123 108.035 30.165C108.082 30.1178 108.109 30.0536 108.109 29.9868V17.0852C108.109 17.0523 108.102 17.0196 108.09 16.9892C108.077 16.9588 108.058 16.9313 108.035 16.9082C108.011 16.885 107.984 16.8668 107.953 16.8545C107.922 16.8422 107.89 16.8361 107.857 16.8366Z" fill="white"/>
<path d="M123.475 9.57097H120.929C120.896 9.57097 120.863 9.57751 120.833 9.59022C120.802 9.60294 120.775 9.62157 120.751 9.64503C120.728 9.66849 120.71 9.69631 120.698 9.72688C120.686 9.75746 120.679 9.79016 120.68 9.82311V18.8361L120.524 18.5875C119.749 17.341 118.083 16.5349 116.279 16.5349C113.167 16.5349 110.02 18.932 110.02 23.513C110.02 27.5082 112.723 30.5196 116.304 30.5196C117.668 30.5196 119.589 29.9727 120.524 28.4386L120.68 28.1829V29.9869C120.679 30.0198 120.686 30.0526 120.698 30.0831C120.71 30.1137 120.728 30.1415 120.751 30.165C120.775 30.1884 120.802 30.2071 120.833 30.2198C120.863 30.2325 120.896 30.239 120.929 30.239H123.475C123.508 30.239 123.541 30.2325 123.571 30.2198C123.602 30.2071 123.629 30.1884 123.652 30.165C123.676 30.1415 123.694 30.1137 123.706 30.0831C123.718 30.0526 123.725 30.0198 123.724 29.9869V9.82311C123.725 9.79016 123.718 9.75746 123.706 9.72688C123.694 9.69631 123.676 9.66849 123.652 9.64503C123.629 9.62157 123.602 9.60294 123.571 9.59022C123.541 9.57751 123.508 9.57097 123.475 9.57097ZM120.634 23.4953C120.651 24.0115 120.565 24.526 120.382 25.009C120.199 25.492 119.922 25.9339 119.567 26.3091C119.211 26.6842 118.785 26.9853 118.313 27.1948C117.841 27.4042 117.332 27.518 116.815 27.5295C114.734 27.5295 113.103 25.7539 113.103 23.4953C113.103 21.2367 114.734 19.5179 116.815 19.5179C117.847 19.544 118.826 19.9768 119.539 20.7219C120.253 21.4671 120.642 22.464 120.623 23.4953H120.634Z" fill="white"/>
<path d="M127.286 16.8366H129.83C129.896 16.8366 129.959 16.8628 130.006 16.9094C130.052 16.956 130.078 17.0192 130.078 17.0852V29.9867C130.078 30.0527 130.052 30.1159 130.006 30.1625C129.959 30.2091 129.896 30.2353 129.83 30.2353H127.286C127.22 30.2353 127.155 30.2088 127.108 30.1615C127.061 30.1142 127.034 30.0501 127.034 29.9832V17.0852C127.035 17.0189 127.062 16.9557 127.109 16.9092C127.157 16.8627 127.22 16.8366 127.286 16.8366Z" fill="white"/>
<path d="M128.569 9.97973C128.305 9.97406 128.043 10.021 127.798 10.1179C127.554 10.2148 127.33 10.3596 127.142 10.5438C126.954 10.728 126.804 10.948 126.702 11.1908C126.6 11.4336 126.548 11.6944 126.548 11.9578C126.553 12.4883 126.769 12.995 127.148 13.3665C127.527 13.7381 128.038 13.9441 128.569 13.9393C128.83 13.9426 129.09 13.8937 129.333 13.7955C129.575 13.6972 129.796 13.5515 129.981 13.367C130.167 13.1825 130.314 12.9628 130.413 12.7208C130.513 12.4788 130.563 12.2194 130.561 11.9578C130.566 11.6956 130.517 11.4352 130.418 11.1923C130.32 10.9494 130.173 10.729 129.987 10.5443C129.801 10.3595 129.579 10.2143 129.335 10.1173C129.092 10.0203 128.831 9.97347 128.569 9.97973Z" fill="white"/>
<path d="M140.554 16.5456C139.438 16.5456 137.456 17.1457 136.7 18.7438L136.455 18.6941V17.0854C136.455 17.0524 136.448 17.0198 136.435 16.9894C136.423 16.959 136.404 16.9314 136.381 16.9083C136.357 16.8852 136.329 16.867 136.299 16.8547C136.268 16.8424 136.235 16.8363 136.202 16.8368H133.659C133.593 16.8368 133.53 16.863 133.483 16.9096C133.437 16.9562 133.411 17.0194 133.411 17.0854V29.9869C133.41 30.0199 133.416 30.0526 133.428 30.0831C133.441 30.1137 133.459 30.1415 133.482 30.165C133.505 30.1885 133.533 30.2071 133.563 30.2198C133.594 30.2325 133.626 30.2391 133.659 30.2391H136.202C136.269 30.2391 136.334 30.2125 136.381 30.1652C136.428 30.1179 136.455 30.0538 136.455 29.9869V23.2396C136.455 20.6259 138.273 19.6884 139.833 19.6884C141.211 19.6884 142.6 20.7218 142.6 23.0265V29.9869C142.6 30.0538 142.626 30.1179 142.674 30.1652C142.721 30.2125 142.785 30.2391 142.852 30.2391H145.402C145.469 30.2391 145.533 30.2125 145.581 30.1652C145.628 30.1179 145.654 30.0538 145.654 29.9869V22.7105C145.647 18.7367 143.836 16.5456 140.554 16.5456Z" fill="white"/>
<path d="M160.846 16.8371H158.303C158.27 16.8366 158.238 16.8427 158.207 16.855C158.176 16.8673 158.149 16.8855 158.125 16.9086C158.102 16.9318 158.083 16.9593 158.07 16.9897C158.058 17.0201 158.051 17.0527 158.051 17.0857V18.8613L157.898 18.6127C157.12 17.3662 155.454 16.5601 153.636 16.5601C150.528 16.5601 147.377 18.9572 147.377 23.5382C147.377 27.5334 150.08 30.5448 153.664 30.5448C155.025 30.5448 156.946 29.9979 157.884 28.4638L158.037 28.2081V29.9872C158.037 30.0541 158.063 30.1182 158.111 30.1655C158.158 30.2128 158.222 30.2394 158.289 30.2394H160.832C160.865 30.2394 160.898 30.2328 160.928 30.2201C160.959 30.2074 160.986 30.1888 161.009 30.1653C161.032 30.1419 161.051 30.114 161.063 30.0835C161.075 30.0529 161.081 30.0202 161.081 29.9872V17.0857C161.081 17.0221 161.057 16.961 161.013 16.9147C160.97 16.8685 160.91 16.8407 160.846 16.8371ZM158.005 23.4956C158.022 24.0128 157.936 24.5281 157.752 25.0118C157.568 25.4955 157.29 25.9378 156.934 26.3131C156.578 26.6884 156.15 26.9893 155.677 27.1981C155.203 27.407 154.693 27.5197 154.176 27.5298C152.094 27.5298 150.467 25.7542 150.467 23.4956C150.467 21.2371 152.094 19.5183 154.176 19.5183C155.21 19.5406 156.192 19.9718 156.909 20.7174C157.625 21.4629 158.017 22.462 157.998 23.4956H158.005Z" fill="white"/>
<path d="M172.451 16.8827C171.871 16.6477 171.251 16.5271 170.625 16.5276C168.934 16.5276 167.705 17.5396 167.073 19.4573L166.846 19.4253V17.0851C166.846 17.0521 166.839 17.0195 166.826 16.9891C166.814 16.9587 166.795 16.9312 166.772 16.908C166.748 16.8849 166.72 16.8667 166.69 16.8544C166.659 16.8421 166.627 16.836 166.594 16.8365H164.05C164.017 16.836 163.985 16.8421 163.954 16.8544C163.923 16.8667 163.896 16.8849 163.872 16.908C163.849 16.9312 163.83 16.9587 163.817 16.9891C163.805 17.0195 163.798 17.0521 163.798 17.0851V29.9867C163.798 30.0535 163.825 30.1177 163.872 30.1649C163.919 30.2122 163.983 30.2388 164.05 30.2388H166.622C166.655 30.2388 166.688 30.2322 166.718 30.2195C166.748 30.2068 166.776 30.1882 166.799 30.1647C166.822 30.1413 166.84 30.1134 166.853 30.0829C166.865 30.0523 166.871 30.0196 166.871 29.9867V25.5831C166.871 20.3274 168.97 19.5461 170.224 19.5461C170.753 19.5474 171.276 19.6562 171.762 19.8657C171.796 19.8815 171.833 19.8898 171.87 19.8898C171.908 19.8898 171.945 19.8815 171.978 19.8657C172.011 19.8485 172.039 19.8243 172.062 19.7949C172.084 19.7654 172.099 19.7313 172.106 19.6952L172.611 17.1703C172.623 17.1112 172.614 17.0496 172.584 16.9968C172.555 16.944 172.508 16.9035 172.451 16.8827Z" fill="white"/>
<path d="M186.564 16.9467C186.541 16.9122 186.51 16.884 186.473 16.8647C186.436 16.8455 186.395 16.8358 186.354 16.8366H183.615C183.565 16.8372 183.516 16.8526 183.474 16.8811C183.432 16.9095 183.4 16.9496 183.381 16.9964L180.067 25.5833L176.721 16.9964C176.702 16.9496 176.67 16.9095 176.628 16.8811C176.586 16.8526 176.537 16.8372 176.486 16.8366H173.694C173.654 16.8364 173.613 16.8463 173.577 16.8656C173.542 16.8848 173.511 16.9127 173.488 16.9467C173.465 16.9807 173.451 17.0199 173.446 17.0608C173.442 17.1017 173.448 17.143 173.464 17.1811L178.436 29.3902L175.691 36.5246C175.673 36.5633 175.666 36.6058 175.67 36.6481C175.673 36.6903 175.687 36.7311 175.71 36.7665C175.734 36.8019 175.766 36.8308 175.803 36.8506C175.841 36.8704 175.883 36.8804 175.925 36.8797H178.589C178.639 36.8799 178.688 36.8647 178.73 36.8361C178.771 36.8075 178.803 36.767 178.82 36.7199L186.585 17.1882C186.603 17.1496 186.61 17.107 186.606 17.0646C186.602 17.0223 186.588 16.9817 186.564 16.9467Z" fill="white"/>
<path d="M43.7815 12.4828C42.8625 9.60181 41.056 7.08501 38.6203 5.29215C36.1846 3.49928 33.2443 2.52212 30.2197 2.50033C27.6625 2.48567 25.1497 3.16788 22.9511 4.47368C20.7526 5.77947 18.9515 7.65948 17.7413 9.91171C15.5172 10.3102 13.4783 11.408 11.9214 13.0452C10.3646 14.6824 9.37094 16.7737 9.08521 19.0146C8.79948 21.2555 9.23656 23.5291 10.3328 25.5044C11.4291 27.4798 13.1273 29.0538 15.1803 29.9974L15.4467 30.1181H15.4645V27.0996C14.0561 26.2353 12.9535 24.952 12.3113 23.4297C11.6691 21.9074 11.5194 20.2224 11.8833 18.6108C12.2471 16.9992 13.1062 15.5418 14.3402 14.4428C15.5742 13.3439 17.1212 12.6585 18.7643 12.4828L19.5103 12.4047L19.8371 11.7335C20.7649 9.76756 22.2349 8.10731 24.0741 6.94791C25.9133 5.78852 28.0454 5.17816 30.2197 5.1886C32.8105 5.20687 35.3208 6.09061 37.3514 7.69929C39.3821 9.30796 40.8164 11.5492 41.4265 14.0666L41.6822 15.0823H42.7478C44.4657 15.1175 46.1016 15.8229 47.3063 17.0478C48.5109 18.2727 49.1887 19.92 49.1948 21.6378C49.1948 24.1414 47.7491 26.1905 45.2875 27.2274V30.0897L45.4651 30.0329C49.4221 28.7367 51.8802 25.5193 51.8802 21.6378C51.8639 19.3913 51.0348 17.2265 49.5461 15.5437C48.0574 13.8608 46.0097 12.7735 43.7815 12.4828Z" fill="#3847BE"/>
<path d="M25.0122 29.7706L25.6019 30.3601C25.6178 30.3765 25.6286 30.3972 25.6329 30.4196C25.6373 30.442 25.635 30.4652 25.6263 30.4864C25.6176 30.5075 25.6029 30.5256 25.5841 30.5385C25.5652 30.5514 25.543 30.5585 25.5202 30.559H20.867C20.3018 30.559 19.7597 30.3345 19.36 29.9349C18.9603 29.5353 18.7358 28.9934 18.7358 28.4283V19.394C18.7358 19.3629 18.7234 19.3331 18.7014 19.3111C18.6794 19.2891 18.6496 19.2768 18.6185 19.2768H17.624C17.6008 19.277 17.5781 19.2704 17.5587 19.2578C17.5394 19.2451 17.5241 19.227 17.515 19.2058C17.5059 19.1845 17.5033 19.161 17.5075 19.1383C17.5117 19.1155 17.5226 19.0945 17.5387 19.0779L21.4886 15.129C21.4995 15.1179 21.5125 15.1091 21.5268 15.1031C21.5412 15.0971 21.5565 15.0941 21.5721 15.0941C21.5876 15.0941 21.603 15.0971 21.6173 15.1031C21.6317 15.1091 21.6446 15.1179 21.6556 15.129L25.6019 19.0779C25.6178 19.0943 25.6286 19.115 25.6329 19.1374C25.6373 19.1598 25.635 19.183 25.6263 19.2041C25.6176 19.2253 25.6029 19.2434 25.5841 19.2563C25.5652 19.2692 25.543 19.2763 25.5202 19.2768H24.5114C24.48 19.2768 24.4498 19.289 24.4272 19.3109C24.4047 19.3328 24.3916 19.3626 24.3906 19.394V28.272C24.3921 28.834 24.6155 29.3726 25.0122 29.7706Z" fill="#3847BE"/>
<path d="M33.7396 29.7701L34.3328 30.3596C34.3489 30.3762 34.3598 30.3972 34.364 30.42C34.3682 30.4427 34.3656 30.4662 34.3565 30.4875C34.3474 30.5087 34.3322 30.5268 34.3128 30.5395C34.2934 30.5521 34.2707 30.5587 34.2476 30.5585H29.605C29.0398 30.5585 28.4977 30.334 28.098 29.9344C27.6983 29.5348 27.4738 28.9929 27.4738 28.4278V21.6769C27.4738 21.6455 27.4616 21.6153 27.4397 21.5928C27.4178 21.5702 27.388 21.5571 27.3566 21.5562H26.3513C26.3285 21.5557 26.3063 21.5486 26.2874 21.5357C26.2686 21.5228 26.2539 21.5046 26.2452 21.4835C26.2366 21.4624 26.2342 21.4392 26.2386 21.4168C26.2429 21.3943 26.2537 21.3737 26.2696 21.3573L30.216 17.4154C30.2269 17.4044 30.2399 17.3956 30.2542 17.3896C30.2685 17.3836 30.2839 17.3805 30.2994 17.3805C30.315 17.3805 30.3304 17.3836 30.3447 17.3896C30.359 17.3956 30.372 17.4044 30.3829 17.4154L34.3328 21.3502C34.3489 21.3668 34.3598 21.3878 34.364 21.4105C34.3682 21.4333 34.3656 21.4568 34.3565 21.478C34.3474 21.4993 34.3322 21.5174 34.3128 21.53C34.2934 21.5427 34.2707 21.5493 34.2476 21.5491H33.2388C33.2074 21.55 33.1775 21.5631 33.1557 21.5857C33.1338 21.6082 33.1215 21.6384 33.1216 21.6698V28.2715C33.122 28.8329 33.3441 29.3715 33.7396 29.7701Z" fill="#3847BE"/>
<path d="M42.4706 29.7701L43.0603 30.3596C43.0762 30.376 43.087 30.3967 43.0913 30.4191C43.0957 30.4415 43.0933 30.4647 43.0847 30.4859C43.076 30.507 43.0613 30.5251 43.0425 30.538C43.0236 30.5509 43.0014 30.5581 42.9786 30.5585H38.3218C37.7566 30.5585 37.2145 30.334 36.8148 29.9344C36.4151 29.5348 36.1906 28.9929 36.1906 28.4278V23.9426C36.1906 23.9115 36.1782 23.8817 36.1563 23.8597C36.1343 23.8378 36.1045 23.8254 36.0734 23.8254H35.0788C35.0552 23.8257 35.0321 23.8188 35.0125 23.8057C34.9929 23.7926 34.9777 23.7739 34.9688 23.7521C34.96 23.7302 34.958 23.7062 34.963 23.6832C34.9681 23.6601 34.9799 23.6392 34.9971 23.623L38.947 19.6776C38.9576 19.6666 38.9703 19.6579 38.9843 19.652C38.9984 19.646 39.0134 19.643 39.0287 19.643C39.0439 19.643 39.059 19.646 39.0731 19.652C39.0871 19.6579 39.0998 19.6666 39.1104 19.6776L43.0603 23.623C43.0774 23.6392 43.0893 23.6601 43.0943 23.6832C43.0994 23.7062 43.0973 23.7302 43.0885 23.7521C43.0797 23.7739 43.0645 23.7926 43.0449 23.8057C43.0253 23.8188 43.0022 23.8257 42.9786 23.8254H41.9662C41.9351 23.8254 41.9053 23.8378 41.8834 23.8597C41.8614 23.8817 41.849 23.9115 41.849 23.9426V28.2715C41.8504 28.8335 42.0739 29.3721 42.4706 29.7701Z" fill="#3847BE"/>
<path d="M333.89 30.6819C337.006 30.6819 338.578 29.0729 339.263 27.9772H339.572C339.707 29.1409 340.53 30.2366 342.138 30.2366H345.183V26.812H344.397C343.849 26.812 343.575 26.5041 343.575 26.0256V12.2954H339.536V14.487H339.228C338.442 13.3912 336.799 11.8502 333.787 11.8502C328.997 11.8502 325.436 15.8212 325.436 21.2653C325.436 26.7094 329.064 30.6819 333.89 30.6819ZM334.608 26.7788C331.768 26.7788 329.545 24.6899 329.545 21.3C329.545 17.978 331.7 15.72 334.575 15.72C337.313 15.72 339.605 17.7395 339.605 21.3C339.605 24.3473 337.653 26.7788 334.608 26.7788ZM347.569 37.1942H351.607V27.9772H351.914C352.667 29.0729 354.276 30.6819 357.459 30.6819C362.25 30.6819 365.741 26.6414 365.741 21.2653C365.741 15.8559 362.01 11.8502 357.185 11.8502C354.105 11.8502 352.598 13.5271 351.879 14.4523H351.572V12.2954H347.568L347.569 37.1942ZM356.604 26.8814C353.831 26.8814 351.538 24.8272 351.538 21.2653C351.538 18.218 353.489 15.6507 356.535 15.6507C359.376 15.6507 361.599 17.8769 361.599 21.2653C361.599 24.5873 359.444 26.8814 356.604 26.8814ZM367.825 37.1942H371.864V27.9772H372.172C372.925 29.0729 374.533 30.6819 377.715 30.6819C382.506 30.6819 385.664 26.6414 385.664 21.2653C385.664 15.8559 382.266 11.8502 377.441 11.8502C374.361 11.8502 372.855 13.5271 372.137 14.4523H371.828V12.2954H367.825V37.1942ZM376.86 26.8814C374.087 26.8814 371.795 24.8272 371.795 21.2653C371.795 18.218 373.745 15.6507 376.791 15.6507C379.632 15.6507 381.857 17.8769 381.857 21.2653C381.857 24.5873 379.7 26.8814 376.86 26.8814ZM391.004 30.653H396.718L399.969 16.5802H400.175L403.425 30.653H409.108L413.656 12.7118H409.586L406.335 26.8193H406.026L402.776 12.7103H397.403L394.117 26.8193H393.81L390.593 12.7103H386.28L391.004 30.653ZM415.703 30.653H419.742V21.7857C419.742 18.3958 421.314 16.307 424.258 16.307H426.037V12.2665H424.703C422.409 12.2665 420.664 13.8422 419.98 15.3485H419.706V12.7118H415.703V30.653ZM446.078 30.653H449.227V27.0578H446.113C444.881 27.0578 444.367 26.5099 444.367 25.2436V16.2723H449.432V12.7118H444.367V7.67825H440.535V12.7118H437.181V16.2723H440.295V25.2783C440.295 29.0787 442.587 30.653 446.078 30.653ZM460.061 30.6819C463.791 30.6819 467.077 28.8315 468.24 25.1019L464.544 24.21C463.893 26.1962 462.012 27.224 460.027 27.224C457.083 27.224 455.133 25.3057 455.098 22.2931H468.685V21.1627C468.685 15.8212 465.366 11.8502 459.89 11.8502C455.064 11.8502 450.924 15.6507 450.924 21.3C450.924 26.7788 454.585 30.6819 460.061 30.6819ZM455.133 19.3485C455.372 17.1916 457.323 15.376 459.89 15.376C462.354 15.376 464.374 16.917 464.579 19.3485H455.133Z" fill="#EDEDF0"/>
<path fill-rule="evenodd" clip-rule="evenodd" d="M435.384 30.6528H431.345V16.2721H428.198V12.7116H435.384V30.6528Z" fill="#EDEDF0"/>
<path d="M433.066 10.2207C434.538 10.2207 435.633 9.12493 435.633 7.68658C435.633 6.28436 434.538 5.18716 433.066 5.18716C431.594 5.18716 430.499 6.28291 430.499 7.68802C430.499 9.12493 431.594 10.2207 433.066 10.2207Z" fill="#EDEDF0"/>
<path d="M313.53 26.254V34.1729H293.78C288.026 34.1729 283.001 30.9883 280.314 26.254C279.125 24.1556 278.426 21.8143 278.27 19.4063V17.2668C278.34 16.1679 278.524 15.0792 278.82 14.0186C280.666 7.36887 286.665 2.50013 293.779 2.50013C300.896 2.50013 306.894 7.37176 308.739 14.0171H300.295C298.91 11.8502 296.509 10.4176 293.78 10.4176C291.051 10.4176 288.652 11.8502 287.266 14.0171C286.837 14.6844 286.511 15.4124 286.299 16.1768C286.105 16.8801 286.007 17.6067 286.008 18.3365C286.004 19.4116 286.219 20.4761 286.638 21.4657C287.057 22.4554 287.672 23.3496 288.446 24.0943C289.877 25.4802 291.79 26.2546 293.78 26.254H313.53Z" fill="#FD366E"/>
<path d="M313.53 16.1753V24.0942H299.113C299.887 23.3496 300.502 22.4555 300.921 21.4658C301.341 20.4762 301.555 19.4116 301.552 18.3365C301.553 17.6066 301.455 16.88 301.26 16.1768L313.53 16.1753Z" fill="#FD366E"/>
<g clip-path="url(#clip0_2001_4093)">
<path fill-rule="evenodd" clip-rule="evenodd" d="M623.85 23.7138C624.215 22.7864 624.398 21.7103 624.398 20.487C624.398 19.2632 624.212 18.1873 623.84 17.2595C623.468 16.3313 622.958 15.551 622.311 14.9186C621.663 14.2862 620.906 13.8121 620.038 13.4958C619.17 13.1792 618.247 13.0208 617.27 13.0208C616.319 13.0208 615.413 13.1792 614.553 13.4958C613.692 13.8121 612.934 14.2862 612.28 14.9186C611.626 15.551 611.105 16.3313 610.72 17.2595C610.334 18.1873 610.141 19.2632 610.141 20.487C610.141 21.7103 610.328 22.7864 610.699 23.7138C611.071 24.6421 611.581 25.419 612.228 26.0441C612.875 26.6702 613.633 27.1407 614.501 27.4568C615.369 27.7734 616.291 27.9315 617.27 27.9315C618.275 27.9315 619.215 27.7734 620.09 27.4568C620.964 27.1407 621.718 26.6702 622.352 26.0441C622.985 25.419 623.485 24.6421 623.85 23.7138ZM613.726 22.3839C613.554 21.8202 613.468 21.1877 613.468 20.487C613.468 19.7995 613.554 19.1705 613.726 18.5996C613.898 18.0292 614.146 17.5413 614.47 17.1359C614.793 16.7301 615.19 16.4138 615.658 16.1868C616.126 15.9602 616.663 15.8468 617.27 15.8468C617.862 15.8468 618.395 15.9567 618.871 16.1768C619.346 16.3962 619.746 16.7093 620.069 17.1148C620.392 17.5209 620.641 18.0084 620.813 18.5788C620.985 19.1495 621.071 19.7854 621.071 20.487C621.071 21.1877 620.985 21.8202 620.813 22.3839C620.641 22.9479 620.392 23.4324 620.069 23.8378C619.746 24.2438 619.346 24.5561 618.871 24.7759C618.395 24.9965 617.862 25.1067 617.27 25.1067C616.663 25.1067 616.126 24.9965 615.658 24.7759C615.19 24.5561 614.793 24.2438 614.47 23.8378C614.146 23.4324 613.898 22.9479 613.726 22.3839Z" fill="white"/>
<path d="M632.502 25.1888C632.957 25.1888 633.332 25.1513 633.628 25.0752C633.924 24.9999 634.162 24.897 634.341 24.7655C634.52 24.6354 634.644 24.4809 634.713 24.3021C634.782 24.1236 634.816 23.924 634.816 23.704C634.816 23.2368 634.596 22.8479 634.155 22.5389C633.714 22.2293 632.957 21.8962 631.882 21.5381C631.414 21.3737 630.946 21.1842 630.477 20.9714C630.009 20.7586 629.589 20.4904 629.217 20.1671C628.846 19.8442 628.542 19.4523 628.308 18.9912C628.074 18.531 627.957 17.971 627.957 17.3109C627.957 16.6508 628.081 16.0562 628.329 15.527C628.577 14.9976 628.928 14.5477 629.383 14.176C629.837 13.8046 630.388 13.52 631.035 13.3202C631.683 13.1212 632.412 13.0208 633.225 13.0208C634.189 13.0208 635.023 13.1246 635.725 13.3305C636.427 13.5367 637.006 13.7639 637.461 14.0114L636.531 16.5479C636.131 16.3417 635.687 16.1594 635.198 16.0011C634.709 15.8433 634.121 15.7638 633.432 15.7638C632.66 15.7638 632.106 15.8711 631.769 16.0839C631.431 16.2969 631.262 16.6237 631.262 17.0632C631.262 17.3248 631.325 17.545 631.449 17.7233C631.572 17.902 631.748 18.0635 631.975 18.208C632.203 18.3521 632.464 18.4831 632.761 18.5996C633.056 18.7167 633.384 18.8366 633.742 18.9603C634.486 19.2358 635.133 19.5071 635.684 19.7752C636.235 20.0434 636.693 20.3563 637.058 20.7136C637.423 21.0709 637.695 21.4905 637.874 21.9718C638.053 22.4533 638.143 23.0373 638.143 23.7242C638.143 25.0579 637.674 26.0926 636.737 26.8278C635.801 27.5638 634.389 27.9317 632.502 27.9317C631.869 27.9317 631.297 27.8937 630.787 27.8181C630.278 27.742 629.827 27.6494 629.434 27.5396C629.042 27.4297 628.704 27.3129 628.421 27.1893C628.139 27.0653 627.902 26.9487 627.709 26.8382L628.618 24.2814C629.045 24.5155 629.572 24.7248 630.199 24.91C630.825 25.0959 631.593 25.1888 632.502 25.1888Z" fill="white"/>
<path d="M652.342 13.3515V16.0945H648.024V27.6428H644.801V16.0945H640.483V13.3515H652.342Z" fill="white"/>
<path d="M655.922 27.6431H659.146V13.3515H655.922V27.6431Z" fill="white"/>
<path d="M673.573 27.6428C672.65 26.0069 671.652 24.3917 670.578 22.7964C669.502 21.2015 668.359 19.6962 667.148 18.28V27.6428H663.966V13.3515H666.59C667.044 13.8048 667.547 14.3617 668.098 15.0218C668.649 15.6819 669.209 16.3866 669.782 17.1358C670.353 17.885 670.921 18.6618 671.486 19.4658C672.051 20.27 672.581 21.0432 673.077 21.7857V13.3515H676.28V27.6428H673.573Z" fill="white"/>
<path d="M688.083 15.8263C686.582 15.8263 685.497 16.2421 684.829 17.0738C684.16 17.9058 683.827 19.043 683.827 20.4871C683.827 21.1876 683.909 21.824 684.074 22.3944C684.24 22.9645 684.488 23.4559 684.818 23.8686C685.149 24.2812 685.562 24.601 686.058 24.8279C686.554 25.0546 687.132 25.168 687.793 25.168C688.151 25.168 688.458 25.161 688.713 25.1475C688.968 25.134 689.191 25.1065 689.384 25.065V20.0952H692.608V27.1686C692.222 27.3201 691.603 27.4813 690.748 27.6528C689.894 27.8244 688.84 27.911 687.587 27.911C686.513 27.911 685.538 27.7457 684.664 27.4161C683.788 27.0857 683.041 26.6049 682.422 25.9722C681.803 25.3401 681.324 24.563 680.986 23.6419C680.648 22.7214 680.48 21.6695 680.48 20.4871C680.48 19.2907 680.666 18.2322 681.038 17.3108C681.41 16.39 681.918 15.6092 682.567 14.9701C683.214 14.3309 683.974 13.8463 684.85 13.5165C685.724 13.1863 686.657 13.0208 687.648 13.0208C688.324 13.0208 688.933 13.066 689.477 13.1551C690.021 13.2448 690.489 13.3478 690.882 13.4648C691.274 13.5813 691.599 13.7016 691.853 13.8256C692.109 13.9493 692.29 14.0459 692.401 14.1145L691.471 16.692C691.031 16.4584 690.523 16.256 689.953 16.0838C689.381 15.9119 688.758 15.8263 688.083 15.8263Z" fill="white"/>
<path d="M697.117 27.6428V13.3515H706.787V16.053H700.341V18.8573H706.064V21.4973H700.341V24.9413H707.262V27.6428H697.117Z" fill="white"/>
<path fill-rule="evenodd" clip-rule="evenodd" d="M720.284 14.3306C719.141 13.5674 717.495 13.1861 715.346 13.1861C714.754 13.1861 714.082 13.2135 713.332 13.2689C712.582 13.3234 711.854 13.4203 711.153 13.557V27.6426H714.375V22.4246H715.966C716.243 22.7551 716.519 23.1227 716.796 23.5287C717.072 23.9342 717.354 24.3633 717.636 24.8172C717.92 25.271 718.195 25.7388 718.466 26.2198C718.734 26.7011 719.001 27.1752 719.264 27.6426H722.866C722.619 27.1204 722.351 26.5877 722.061 26.0442C721.772 25.5015 721.473 24.9793 721.162 24.4775C720.853 23.9757 720.538 23.4944 720.222 23.0336C719.905 22.5731 719.603 22.1642 719.313 21.8064C720.182 21.4494 720.845 20.9574 721.307 20.3322C721.769 19.7067 721.999 18.8915 721.999 17.8883C721.999 16.2794 721.427 15.0937 720.284 14.3306ZM714.902 15.9496C715.088 15.9361 715.298 15.9291 715.532 15.9291C716.565 15.9291 717.347 16.077 717.877 16.3721C718.408 16.6685 718.673 17.1662 718.673 17.8675C718.673 18.5965 718.412 19.1124 717.888 19.4144C717.364 19.7171 716.497 19.8676 715.285 19.8676H714.375V15.9908C714.541 15.9776 714.716 15.9637 714.902 15.9496Z" fill="white"/>
<path d="M602.593 13.4671H605.835V27.7081H602.593V21.6665H597.147V27.7081H593.905V13.4671H597.147V18.9125H602.593V13.4671Z" fill="white"/>
<path fill-rule="evenodd" clip-rule="evenodd" d="M571.777 3.5V13.6843L580.076 18.4963V7.69396L571.777 3.5ZM550.808 3.5005V19.482H577.802L569.589 15.0071L558.89 15.0019V7.80147L550.808 3.5005ZM571.777 33.2177V26.0793L560.995 26.0718C561.005 26.1194 552.646 21.5255 552.646 21.5255L580.076 21.6539V37.6351L571.777 33.2177ZM550.808 22.7741L550.808 33.2177L558.89 37.4114V27.4723L550.808 22.7741Z" fill="#6741C9"/>
</g>
<path fill-rule="evenodd" clip-rule="evenodd" d="M881.059 29.9609L881.619 29.217C881.992 29.031 881.992 28.659 881.992 28.287C881.992 27.915 881.992 27.543 881.432 27.171C881.246 26.799 880.873 26.613 880.313 26.427C878.485 26.0273 876.68 25.5306 874.905 24.939L872.854 23.637C872.108 23.2651 871.735 22.7071 871.362 22.1491L870.802 19.9171C870.802 18.9871 870.989 18.2431 871.362 17.6851C871.735 16.9412 872.294 16.1972 873.04 15.8252C873.6 15.2672 874.532 14.7092 875.278 14.5232C877.031 13.928 878.933 13.928 880.686 14.5232C881.432 14.5232 882.178 14.8952 882.924 15.4532L884.416 16.9412C884.975 17.4992 885.162 18.2431 885.348 18.8011L881.432 19.9171C881.432 19.3591 880.873 18.8011 880.313 18.4291C879.668 17.9462 878.882 17.6851 878.075 17.6851C877.309 17.5969 876.534 17.7258 875.838 18.0571L875.092 18.8011L874.719 19.7311L875.092 20.6611L876.024 21.4051L877.143 21.7771L878.262 22.1491L881.992 23.2651L884.416 24.567C884.975 25.125 885.348 25.683 885.535 26.427C885.908 26.799 885.908 27.543 885.908 28.287C885.908 29.217 885.908 30.1469 885.348 30.7049C884.975 31.4489 884.416 32.1929 883.67 32.7509C882.924 33.3089 881.992 33.8669 881.059 34.0529C880.127 34.4249 879.008 34.6109 877.889 34.6109C876.024 34.6109 874.532 34.2389 873.04 33.3089C871.735 32.3789 870.802 31.4489 870.243 29.9609L873.973 28.473C874.346 29.403 874.905 29.9609 875.651 30.3329C876.211 30.7049 877.143 30.8909 878.075 30.8909C879.194 30.8909 879.94 30.5189 880.873 29.9609H881.059ZM899.708 34.0529L896.165 34.7969C895.046 34.7969 894.113 34.7969 893.181 34.2389C892.248 33.8669 891.503 33.1229 890.943 32.1929C890.384 31.2629 890.197 29.7749 890.197 27.915V18.6151H886.654V14.3372H887.586C888.705 14.3372 889.824 14.1512 890.384 13.0352C890.757 12.6632 890.757 12.1052 890.757 10.8033V9.31529H894.486V14.3372H898.589V18.8011H894.3V30.1469L895.232 31.0769L896.724 31.2629H898.962L899.708 34.0529ZM912.762 18.0571L912.203 17.6851H911.27L910.711 17.4992C909.148 17.4671 907.627 17.9951 906.421 18.9871L905.303 20.4751C904.93 21.0331 904.93 21.7771 904.93 22.3351V34.7969H900.64V14.3372H903.997L904.743 16.7552C905.303 15.8252 906.048 15.2672 906.981 14.8952C908.066 14.2962 909.284 13.9766 910.524 13.9652L913.694 14.3372L912.576 18.0571H912.762ZM923.392 34.6109C921.335 34.6053 919.325 34.0049 917.603 32.8825C915.882 31.76 914.524 30.1637 913.694 28.287C913.135 26.985 912.762 25.683 912.762 24.195C912.764 22.191 913.346 20.2301 914.437 18.5476C915.529 16.865 917.084 15.5323 918.916 14.7092C921.369 13.7263 924.109 13.7263 926.562 14.7092C927.681 15.0812 928.8 15.8252 929.546 16.7552C930.478 17.6851 931.224 18.9871 931.597 20.4751C932.157 22.1491 932.343 23.823 932.343 26.055H917.238C917.238 26.799 917.611 27.357 918.17 27.915C918.976 29.1661 920.148 30.1401 921.527 30.7049L923.951 31.0769C925.889 31.0794 927.755 30.3482 929.173 29.031L931.784 31.4489C930.699 32.4291 929.432 33.1874 928.054 33.6809C926.749 34.2389 925.07 34.6109 923.392 34.6109ZM922.646 17.4992C922.086 17.4992 921.34 17.4992 920.781 17.8711C919.587 18.4094 918.604 19.3244 917.984 20.4751C917.611 21.0331 917.238 21.7771 917.238 22.3351H927.867C927.867 21.7771 927.867 21.2191 927.494 20.4751C927.071 19.5176 926.358 18.7161 925.455 18.1825C924.552 17.649 923.505 17.41 922.459 17.4992H922.646ZM954.349 14.3372V34.6109H950.992L950.246 31.8209C949.686 32.7509 948.754 33.4949 947.635 33.8669C946.516 34.4249 945.397 34.6109 944.278 34.6109C942.926 34.6374 941.583 34.387 940.332 33.8751C939.081 33.3632 937.949 32.6008 937.005 31.6349C935.046 29.6515 933.948 26.9791 933.948 24.195C933.948 21.411 935.046 18.7386 937.005 16.7552C937.962 15.8065 939.097 15.0553 940.345 14.5446C941.593 14.034 942.929 13.7739 944.278 13.7792C945.397 13.7792 946.516 14.1512 947.449 14.5232C948.568 14.8952 949.5 15.6392 950.246 16.3832L950.992 14.3372H954.535H954.349ZM944.278 31.0769L946.516 30.5189C947.262 30.1469 948.008 29.5889 948.381 29.031C949.594 27.7125 950.26 25.9843 950.246 24.195C950.225 22.4123 949.564 20.6962 948.381 19.3591C948.008 18.8011 947.262 18.2431 946.516 17.8711C945.792 17.5109 944.994 17.3234 944.185 17.3234C943.376 17.3234 942.578 17.5109 941.854 17.8711L939.989 19.3591C938.776 20.6775 938.11 22.4057 938.124 24.195C938.145 25.9778 938.807 27.6939 939.989 29.031L941.854 30.5189C942.6 30.8909 943.346 31.0769 944.278 31.0769ZM961.622 34.6109H957.519V14.1512H960.689L961.622 16.0112C961.995 15.4532 962.741 14.8952 963.486 14.5232C964.046 14.1512 964.978 13.7792 965.911 13.7792C967.552 13.8034 969.134 14.3951 970.386 15.4532L971.692 16.9412C972.065 16.1972 972.811 15.4532 973.743 14.7092C974.682 14.0879 975.787 13.7638 976.914 13.7792L979.338 14.1512C980.248 14.4441 981.085 14.9275 981.792 15.569C982.5 16.2106 983.062 16.9954 983.441 17.8711C983.814 18.9871 984 20.4751 984 22.1491V34.6109H980.27V22.1491C980.27 20.2891 979.711 19.1731 978.965 18.4291C978.405 17.8711 977.286 17.4992 976.168 17.4992C975.235 17.4992 974.303 17.8711 973.743 18.6151C973.184 19.3591 972.811 20.4751 972.811 22.1491V34.6109H968.895V22.1491C968.895 20.2891 968.522 19.1731 967.776 18.4291C967.03 17.8711 966.097 17.4992 964.978 17.4992C964.046 17.4992 963.3 17.8711 962.74 18.4291C961.995 19.1731 961.622 20.1031 961.622 21.4051V34.4249V34.6109Z" fill="white"/>
<path fill-rule="evenodd" clip-rule="evenodd" d="M846.3 14.3977L865.751 13.0755C867.06 13.0755 867.995 14.3977 867.247 15.3421L853.594 34.2301C853.22 34.4189 852.846 34.7967 852.284 34.7967H821.612C821.379 34.7683 821.156 34.6851 820.961 34.5539C820.767 34.4226 820.605 34.247 820.489 34.0412L806.836 15.3421C806.088 14.3977 806.836 12.8867 808.145 13.0755L827.597 14.3977L835.826 5.33148C836.387 4.57596 837.696 4.57596 838.07 5.33148L846.3 14.2088V14.3977ZM850.414 31.7746L837.696 27.0526V31.7746H850.414ZM836.2 31.7746V27.0526L823.482 31.7746H836.387H836.2ZM834.704 26.1082L821.799 30.8302L812.447 17.6087L834.891 25.9194L834.704 26.1082ZM839.192 26.1082L852.284 30.8302L861.636 17.6087L839.192 25.9194V26.1082ZM836.2 24.975V9.29795L825.726 21.0085L836.2 24.7861V24.975ZM837.696 24.975V9.29795L848.357 21.0085L837.696 24.7861V24.975ZM822.547 19.8752L824.978 17.2309L813.008 16.4754L822.547 19.8752ZM851.349 19.8752L848.918 17.2309L860.701 16.4754L851.349 19.8752Z" fill="#006CFF"/>
<path d="M1119.27 16.7909C1118.16 16.0381 1115.27 15.7166 1113.16 16.2924C1113.05 14.1648 1111.96 12.3716 1109.98 10.8069L1109.25 10.3084L1108.76 11.0565C1107.8 12.5337 1107.4 14.5026 1107.54 16.2924C1107.65 17.3952 1108.03 18.6344 1108.76 19.5337C1106.02 21.1465 1103.49 20.7803 1092.29 20.7803H1075C1074.95 23.3433 1075.36 28.2728 1078.45 32.2859C1078.79 32.7294 1079.17 33.1581 1079.58 33.5711C1082.09 36.1233 1085.89 37.9952 1091.57 38C1100.24 38.0081 1107.66 33.2591 1112.18 21.778C1113.67 21.8024 1117.59 22.0479 1119.51 18.2871C1119.56 18.224 1120 17.2901 1120 17.2901L1119.27 16.7916V16.7909ZM1086.29 14.4476H1081.42V19.375H1086.29V14.4476ZM1092.57 14.4476H1087.7V19.375H1092.57V14.4476ZM1098.85 14.4476H1093.99V19.375H1098.85V14.4476ZM1105.13 14.4476H1100.27V19.375H1105.13V14.4476ZM1080.01 14.4476H1075.14V19.375H1080.01V14.4476ZM1086.29 8.22415H1081.42V13.1515H1086.29V8.22415ZM1092.57 8.22415H1087.7V13.1515H1092.57V8.22415ZM1098.85 8.22415H1093.99V13.1515H1098.85V8.22415ZM1098.85 2H1093.99V6.92737H1098.85V2Z" fill="#1D63ED"/>
<path d="M1231 30.4384C1231 31.7229 1230 32.7315 1228.7 32.7315C1227.4 32.7315 1226.39 31.7229 1226.39 30.4384C1226.39 29.1538 1227.42 28.173 1228.7 28.173C1229.99 28.173 1231 29.1816 1231 30.4384ZM1226.97 30.4384C1226.97 31.4469 1227.71 32.2479 1228.72 32.2479C1229.73 32.2479 1230.42 31.4469 1230.42 30.4526C1230.42 29.4583 1229.7 28.6288 1228.7 28.6288C1227.71 28.6288 1226.97 29.4441 1226.97 30.4384H1226.97ZM1228.35 31.6266H1227.83V29.3613C1228.03 29.3199 1228.32 29.2921 1228.69 29.2921C1229.11 29.2921 1229.3 29.3613 1229.47 29.4583C1229.59 29.5546 1229.69 29.7343 1229.69 29.9554C1229.69 30.2044 1229.5 30.3977 1229.22 30.4804V30.5082C1229.44 30.5903 1229.56 30.7564 1229.63 31.0603C1229.7 31.4055 1229.74 31.5439 1229.8 31.6266H1229.24C1229.17 31.5439 1229.13 31.337 1229.06 31.0739C1229.02 30.8256 1228.88 30.7151 1228.59 30.7151H1228.35V31.6273V31.6266ZM1228.36 30.342H1228.61C1228.89 30.342 1229.13 30.2457 1229.13 30.0111C1229.13 29.8035 1228.98 29.6645 1228.65 29.6645C1228.51 29.6645 1228.42 29.6787 1228.36 29.6937V30.342Z" fill="white"/>
<path d="M1142.95 7.51243C1142.63 7.19501 1142.24 7.03359 1141.78 7.03359C1141.32 7.03359 1140.92 7.19501 1140.61 7.51243C1140.3 7.82984 1140.15 8.23678 1140.15 8.72172V16.8198C1138.56 15.4912 1136.72 14.8211 1134.64 14.8211C1132.21 14.8211 1130.13 15.7069 1128.42 17.4845C1126.7 19.2561 1125.84 21.3993 1125.84 23.9128C1125.84 26.4263 1126.7 28.5635 1128.42 30.3411C1130.13 32.1127 1132.2 33.0045 1134.64 33.0045C1137.07 33.0045 1139.11 32.1188 1140.86 30.3411C1142.57 28.5872 1143.43 26.4447 1143.43 23.9128V8.72172C1143.43 8.23678 1143.27 7.82984 1142.95 7.51243ZM1139.72 26.1035V26.1157C1139.43 26.8041 1139.04 27.4084 1138.54 27.9232C1138.04 28.4441 1137.46 28.851 1136.79 29.1562C1136.12 29.4614 1135.41 29.6113 1134.64 29.6113C1133.88 29.6113 1133.15 29.4614 1132.47 29.1562C1131.8 28.851 1131.22 28.4441 1130.73 27.9293C1130.24 27.4145 1129.85 26.8102 1129.56 26.1218C1129.28 25.4273 1129.13 24.6914 1129.13 23.9128C1129.13 23.1342 1129.28 22.3983 1129.56 21.7038C1129.85 21.0093 1130.24 20.4111 1130.73 19.8963C1131.22 19.3815 1131.81 18.9746 1132.47 18.6694C1133.15 18.3642 1133.86 18.2143 1134.64 18.2143C1135.42 18.2143 1136.12 18.3642 1136.79 18.6694C1137.47 18.9746 1138.04 19.3815 1138.54 19.9024C1139.04 20.4233 1139.43 21.0276 1139.72 21.7099C1140 22.3983 1140.15 23.1288 1140.15 23.9067C1140.15 24.6846 1140 25.4212 1139.72 26.1035Z" fill="white"/>
<path d="M1215.59 20.4237C1215.16 19.3459 1214.51 18.3706 1213.66 17.4964L1213.65 17.4903C1211.91 15.7187 1209.83 14.8269 1207.43 14.8269C1205.02 14.8269 1202.93 15.7126 1201.21 17.4903C1199.49 19.2618 1198.63 21.4051 1198.63 23.9186C1198.63 26.4321 1199.49 28.5692 1201.21 30.3469C1202.93 32.1184 1205 33.0103 1207.43 33.0103C1209.64 33.0103 1211.55 32.2744 1213.17 30.802C1213.49 30.4669 1213.65 30.06 1213.65 29.5866C1213.65 29.1132 1213.49 28.6947 1213.18 28.3773C1212.87 28.0599 1212.48 27.8985 1212.02 27.8985C1211.61 27.9107 1211.24 28.0484 1210.93 28.3237C1210.44 28.7544 1209.91 29.084 1209.33 29.2997C1208.75 29.5154 1208.12 29.6232 1207.43 29.6232C1206.82 29.6232 1206.24 29.5276 1205.69 29.3302C1205.13 29.1329 1204.61 28.8629 1204.15 28.5102C1203.68 28.1569 1203.28 27.7384 1202.93 27.2413C1202.59 26.7502 1202.32 26.2056 1202.15 25.6074H1214.58C1215.04 25.6074 1215.43 25.446 1215.75 25.1286C1216.07 24.8111 1216.23 24.4042 1216.23 23.9193C1216.23 22.6625 1216.01 21.4953 1215.59 20.4237H1215.59ZM1202.14 22.2311C1202.31 21.6384 1202.56 21.0937 1202.91 20.5973C1203.25 20.1062 1203.66 19.6817 1204.13 19.3283C1204.6 18.9749 1205.12 18.7057 1205.68 18.5083C1206.25 18.3109 1206.83 18.2153 1207.43 18.2153C1208.02 18.2153 1208.6 18.3109 1209.16 18.5083C1209.72 18.7057 1210.24 18.9749 1210.7 19.3283C1211.17 19.6817 1211.58 20.1001 1211.92 20.5973C1212.27 21.0883 1212.54 21.6329 1212.72 22.2311H1202.14H1202.14Z" fill="white"/>
<path d="M1230.87 15.9639C1230.58 15.6709 1230.21 15.443 1229.76 15.2755C1229.32 15.1079 1228.83 14.994 1228.3 14.9282C1227.78 14.8624 1227.28 14.8326 1226.82 14.8326C1225.77 14.8326 1224.79 15.0062 1223.87 15.3534C1222.94 15.7007 1222.09 16.1972 1221.3 16.8435V16.5207C1221.3 16.0541 1221.15 15.6587 1220.82 15.3297C1220.5 15.0008 1220.12 14.8332 1219.67 14.8332C1219.22 14.8332 1218.83 15.0008 1218.5 15.3297C1218.18 15.6587 1218.03 16.0602 1218.03 16.5207V31.3232C1218.03 31.7898 1218.18 32.1852 1218.5 32.5141C1218.83 32.8431 1219.21 33.0106 1219.67 33.0106C1220.14 33.0106 1220.51 32.8431 1220.82 32.5141C1221.15 32.1852 1221.3 31.7837 1221.3 31.3232V23.9189C1221.3 23.1287 1221.45 22.3867 1221.74 21.6922C1222.02 20.9977 1222.42 20.3995 1222.91 19.8847C1223.41 19.37 1223.99 18.963 1224.66 18.6693C1225.33 18.3702 1226.05 18.2203 1226.81 18.2203C1227.58 18.2203 1228.3 18.358 1228.96 18.6273C1229.23 18.7473 1229.45 18.807 1229.65 18.807C1229.88 18.807 1230.1 18.765 1230.3 18.6754C1230.49 18.5859 1230.67 18.4659 1230.82 18.3106C1230.96 18.1552 1231.08 17.9755 1231.17 17.7659C1231.25 17.5625 1231.3 17.3407 1231.3 17.1013C1231.3 16.6346 1231.16 16.2575 1230.86 15.9639H1230.87H1230.87Z" fill="white"/>
<path d="M1162.23 20.4295C1161.8 19.3579 1161.16 18.3765 1160.3 17.4907C1158.57 15.7192 1156.49 14.8273 1154.08 14.8273C1151.68 14.8273 1149.58 15.7131 1147.86 17.4907C1146.15 19.2623 1145.29 21.4055 1145.29 23.919C1145.29 26.4326 1146.15 28.5697 1147.86 30.3473C1149.58 32.1189 1151.65 33.0108 1154.08 33.0108C1156.52 33.0108 1158.56 32.125 1160.3 30.3473C1162.02 28.5934 1162.88 26.4509 1162.88 23.919C1162.86 22.6623 1162.65 21.5011 1162.23 20.4295H1162.23ZM1159.16 26.1036V26.1158C1158.88 26.8042 1158.49 27.4085 1157.99 27.9233C1157.49 28.4442 1156.91 28.8511 1156.24 29.1564C1155.58 29.4616 1154.86 29.6114 1154.09 29.6114C1153.32 29.6114 1152.59 29.4616 1151.92 29.1564C1151.25 28.8511 1150.67 28.4442 1150.18 27.9294C1149.69 27.4146 1149.3 26.8103 1149.01 26.1219C1148.72 25.4274 1148.58 24.6915 1148.58 23.9129C1148.58 23.1343 1148.72 22.3984 1149.01 21.7039C1149.3 21.0094 1149.69 20.4112 1150.18 19.8964C1150.67 19.3816 1151.26 18.9747 1151.92 18.6695C1152.59 18.3643 1153.31 18.2144 1154.09 18.2144C1154.87 18.2144 1155.57 18.3643 1156.24 18.6695C1156.91 18.9747 1157.49 19.3816 1157.99 19.9025C1158.49 20.4234 1158.88 21.0277 1159.16 21.71C1159.45 22.3984 1159.6 23.1289 1159.6 23.9068C1159.6 24.6848 1159.45 25.4213 1159.16 26.1036Z" fill="white"/>
<path d="M1197.39 16.5148C1197.39 16.2876 1197.35 16.0719 1197.26 15.8684C1197.17 15.665 1197.06 15.4798 1196.91 15.3238C1196.76 15.1685 1196.59 15.0423 1196.39 14.9589C1196.19 14.8755 1195.97 14.8273 1195.75 14.8273C1195.42 14.8273 1195.13 14.9114 1194.87 15.0851L1185.48 21.4001V8.73408C1185.48 8.25525 1185.32 7.85441 1185 7.52479C1184.68 7.19584 1184.3 7.02832 1183.85 7.02832C1183.4 7.02832 1183 7.19584 1182.68 7.52479C1182.36 7.85373 1182.2 8.25525 1182.2 8.73408V31.2996C1182.2 31.7662 1182.36 32.1678 1182.68 32.5028C1183 32.8378 1183.39 33.0054 1183.85 33.0054C1184.31 33.0054 1184.69 32.8378 1185 32.5028C1185.32 32.1678 1185.48 31.7662 1185.48 31.2996V25.4397L1187.4 24.1409L1194.65 32.5625C1194.95 32.8555 1195.31 32.9993 1195.75 32.9993C1195.98 32.9993 1196.2 32.9572 1196.4 32.8677C1196.59 32.7836 1196.77 32.6581 1196.92 32.5028C1197.06 32.3475 1197.18 32.1678 1197.27 31.9582C1197.35 31.7547 1197.4 31.5329 1197.4 31.3118C1197.4 30.8689 1197.25 30.4735 1196.94 30.1269L1190.19 22.2682L1196.77 17.8509C1197.19 17.5579 1197.39 17.1089 1197.39 16.5039V16.5161L1197.39 16.5148Z" fill="white"/>
<path d="M1169.6 19.8848C1170.1 19.37 1170.69 18.9631 1171.36 18.6694C1172.03 18.3703 1172.74 18.2204 1173.51 18.2204C1174.2 18.2204 1174.84 18.3404 1175.43 18.5792C1176.01 18.8186 1176.57 19.172 1177.1 19.6325C1177.42 19.8895 1177.78 20.0211 1178.17 20.0211C1178.65 20.0211 1179.03 19.8597 1179.34 19.5362C1179.65 19.2126 1179.81 18.8057 1179.81 18.3208C1179.81 17.8358 1179.62 17.3868 1179.24 17.0403C1177.62 15.5678 1175.71 14.8313 1173.51 14.8313C1171.08 14.8313 1169.01 15.717 1167.29 17.4947C1165.57 19.2662 1164.72 21.4094 1164.72 23.923C1164.72 26.4365 1165.58 28.5736 1167.29 30.3513C1169.01 32.1228 1171.08 33.0147 1173.51 33.0147C1175.71 33.0147 1177.62 32.2788 1179.24 30.8057C1179.58 30.4469 1179.76 30.0339 1179.76 29.555C1179.76 29.0762 1179.61 28.6632 1179.3 28.3458C1178.99 28.0283 1178.6 27.8669 1178.13 27.8669C1177.73 27.8791 1177.39 27.9985 1177.09 28.2257C1176.57 28.6923 1176.02 29.0396 1175.43 29.2729C1174.84 29.5062 1174.21 29.6202 1173.51 29.6202C1172.74 29.6202 1172.03 29.4703 1171.36 29.1712C1170.69 28.8721 1170.1 28.4651 1169.6 27.9564C1169.1 27.4478 1168.7 26.8374 1168.41 26.149C1168.13 25.4544 1167.98 24.7125 1167.98 23.9223C1167.98 23.1322 1168.13 22.3902 1168.41 21.6957C1168.7 21.0012 1169.1 20.4029 1169.6 19.8882V19.8821L1169.6 19.8848Z" fill="white"/>
<defs>
<clipPath id="clip0_2001_4093">
<rect width="173" height="35" fill="white" transform="translate(551.039 2.5)"/>
</clipPath>
</defs>
</svg>
