<svg width="264" height="40" viewBox="0 0 264 40" fill="none" xmlns="http://www.w3.org/2000/svg">
<g filter="url(#filter0_i_2001_349)">
<g clip-path="url(#clip0_2001_349)">
<rect width="40" height="40" rx="8" fill="#05041F" fill-opacity="0.08"/>
<rect x="0.5" y="0.5" width="39" height="39" rx="7.5" stroke="white" stroke-opacity="0.08"/>
<rect width="40" height="40" fill="url(#paint0_radial_2001_349)"/>
<g clip-path="url(#clip1_2001_349)">
<g clip-path="url(#clip2_2001_349)">
<path d="M19.9998 17.7093C19.699 17.7093 19.4011 17.7686 19.1231 17.8837C18.8452 17.9989 18.5926 18.1676 18.3799 18.3803C18.1671 18.5931 17.9984 18.8456 17.8832 19.1236C17.7681 19.4016 17.7088 19.6995 17.7088 20.0003C17.7088 20.3012 17.7681 20.5991 17.8832 20.8771C17.9984 21.155 18.1671 21.4076 18.3799 21.6203C18.5926 21.833 18.8452 22.0018 19.1231 22.1169C19.4011 22.2321 19.699 22.2913 19.9998 22.2913C20.6075 22.2913 21.1902 22.05 21.6198 21.6203C22.0495 21.1907 22.2908 20.6079 22.2908 20.0003C22.2908 19.3927 22.0495 18.81 21.6198 18.3803C21.1902 17.9507 20.6075 17.7093 19.9998 17.7093ZM19.9998 16.1813C20.5066 16.1731 21.01 16.2659 21.4806 16.4541C21.9511 16.6424 22.3796 16.9224 22.7409 17.2779C23.1021 17.6334 23.3891 18.0572 23.5849 18.5247C23.7808 18.9922 23.8816 19.494 23.8816 20.0008C23.8816 20.5077 23.7808 21.0095 23.5849 21.4769C23.3891 21.9444 23.1021 22.3683 22.7409 22.7237C22.3796 23.0792 21.9511 23.3593 21.4806 23.5475C21.01 23.7358 20.5066 23.8285 19.9998 23.8203C18.9867 23.8203 18.0151 23.4179 17.2987 22.7015C16.5823 21.9851 16.1798 21.0135 16.1798 20.0003C16.1798 18.9872 16.5823 18.0156 17.2987 17.2992C18.0151 16.5828 18.9867 16.1813 19.9998 16.1813ZM24.9648 15.9903C24.969 16.1183 24.9474 16.2457 24.9013 16.3652C24.8552 16.4846 24.7855 16.5935 24.6965 16.6855C24.6074 16.7775 24.5008 16.8506 24.3829 16.9005C24.2651 16.9505 24.1384 16.9762 24.0103 16.9762C23.8823 16.9762 23.7556 16.9505 23.6378 16.9005C23.5199 16.8506 23.4133 16.7775 23.3242 16.6855C23.2352 16.5935 23.1655 16.4846 23.1194 16.3652C23.0733 16.2457 23.0517 16.1183 23.0558 15.9903C23.0558 15.737 23.1565 15.4941 23.3356 15.315C23.5147 15.1359 23.7576 15.0353 24.0108 15.0353C24.2641 15.0353 24.507 15.1359 24.6861 15.315C24.8652 15.4941 24.9648 15.737 24.9648 15.9903ZM19.9998 13.8903C18.1098 13.8903 17.8018 13.8943 16.9228 13.9333C16.3228 13.9623 15.9218 14.0423 15.5488 14.1873C15.2178 14.3153 14.9788 14.4693 14.7238 14.7243C14.4838 14.9553 14.3008 15.2373 14.1858 15.5493C14.0408 15.9233 13.9608 16.3243 13.9328 16.9233C13.8928 17.7663 13.8888 18.0613 13.8888 20.0003C13.8888 21.8903 13.8938 22.1993 13.9328 23.0783C13.9618 23.6763 14.0418 24.0783 14.1858 24.4513C14.3158 24.7833 14.4688 25.0223 14.7228 25.2763C14.9798 25.5323 15.2188 25.6863 15.5478 25.8133C15.9248 25.9593 16.3268 26.0403 16.9228 26.0673C17.7658 26.1073 18.0608 26.1113 19.9998 26.1113C21.8898 26.1113 22.1988 26.1063 23.0778 26.0673C23.6748 26.0393 24.0778 25.9593 24.4508 25.8143C24.7808 25.6853 25.0218 25.5323 25.2758 25.2783C25.5328 25.0203 25.6858 24.7813 25.8128 24.4533C25.9588 24.0763 26.0398 23.6733 26.0668 23.0783C26.1068 22.2353 26.1108 21.9403 26.1108 20.0003C26.1108 18.1103 26.1058 17.8023 26.0668 16.9233C26.0388 16.3253 25.9588 15.9223 25.8128 15.5493C25.6977 15.2377 25.5142 14.9557 25.2758 14.7243C25.045 14.485 24.7629 14.3011 24.4508 14.1863C24.0768 14.0413 23.6748 13.9613 23.0778 13.9333C22.2348 13.8933 21.9398 13.8903 19.9998 13.8903ZM19.9998 12.3613C22.0758 12.3613 22.3348 12.3693 23.1488 12.4073C23.9628 12.4453 24.5158 12.5733 25.0038 12.7623C25.5078 12.9563 25.9328 13.2193 26.3568 13.6433C26.7458 14.0253 27.0468 14.4873 27.2378 14.9973C27.4268 15.4833 27.5548 16.0373 27.5928 16.8513C27.6288 17.6663 27.6388 17.9253 27.6388 20.0013C27.6388 22.0763 27.6308 22.3353 27.5928 23.1493C27.5548 23.9633 27.4268 24.5163 27.2378 25.0043C27.0468 25.5143 26.7458 25.9763 26.3578 26.3573C25.9757 26.7457 25.5137 27.0463 25.0038 27.2383C24.5168 27.4273 23.9618 27.5553 23.1488 27.5933C22.3348 27.6293 22.0758 27.6393 19.9998 27.6393C17.9248 27.6393 17.6658 27.6313 16.8508 27.5933C16.0378 27.5553 15.4838 27.4273 14.9968 27.2383C14.4868 27.0472 14.0246 26.7469 13.6428 26.3583C13.2546 25.9763 12.9542 25.5143 12.7628 25.0043C12.5728 24.5173 12.4448 23.9623 12.4068 23.1493C12.3708 22.3353 12.3608 22.0763 12.3608 20.0003C12.3608 17.9253 12.3688 17.6663 12.4068 16.8513C12.4448 16.0373 12.5728 15.4843 12.7618 14.9973C12.9538 14.4873 13.2538 14.0253 13.6428 13.6433C14.0247 13.2549 14.4868 12.9546 14.9968 12.7633C15.4838 12.5733 16.0368 12.4453 16.8508 12.4073C17.6658 12.3713 17.9248 12.3613 20.0008 12.3613H19.9998Z" fill="white"/>
</g>
</g>
</g>
</g>
<g filter="url(#filter1_i_2001_349)">
<g clip-path="url(#clip3_2001_349)">
<rect x="56" width="40" height="40" rx="8" fill="#05041F" fill-opacity="0.08"/>
<rect x="56.5" y="0.5" width="39" height="39" rx="7.5" stroke="white" stroke-opacity="0.08"/>
<rect x="56" width="40" height="40" fill="url(#paint1_radial_2001_349)"/>
<g clip-path="url(#clip4_2001_349)">
<g clip-path="url(#clip5_2001_349)">
<path d="M78.5199 15.0733C77.9395 15.0734 77.3823 15.3014 76.9683 15.7082C76.5543 16.1149 76.3164 16.6679 76.3059 17.2483L76.2839 18.4513C76.2828 18.5159 76.268 18.5797 76.2405 18.6382C76.2129 18.6967 76.1733 18.7488 76.1241 18.7908C76.075 18.8329 76.0174 18.8641 75.9553 18.8822C75.8933 18.9004 75.828 18.9052 75.7639 18.8963L74.5719 18.7343C73.0029 18.5203 71.4999 17.7973 70.0579 16.5963C69.6009 19.1243 70.4929 20.8763 72.6419 22.2273L73.9759 23.0663C74.0391 23.1063 74.0915 23.1612 74.1287 23.2262C74.1659 23.2911 74.1866 23.3641 74.1892 23.4389C74.1917 23.5137 74.176 23.5879 74.1434 23.6553C74.1108 23.7226 74.0622 23.7809 74.0019 23.8253L72.7859 24.7133C73.5099 24.7583 74.1959 24.7263 74.7659 24.6133C78.3699 23.8933 80.7659 21.1823 80.7659 16.7083C80.7659 16.3433 79.9929 15.0733 78.5199 15.0733ZM74.7779 17.2193C74.7912 16.4829 75.0215 15.7669 75.4398 15.1608C75.8582 14.5547 76.446 14.0854 77.1297 13.8118C77.8135 13.5382 78.5627 13.4724 79.2837 13.6226C80.0047 13.7728 80.6653 14.1324 81.1829 14.6563C81.7259 14.6533 82.1879 14.7903 83.2219 14.1643C82.9659 15.4163 82.8399 15.9603 82.2939 16.7083C82.2939 22.5463 78.7059 25.3843 75.0659 26.1113C72.5689 26.6093 68.9389 25.7913 67.8989 24.7053C68.4289 24.6633 70.5829 24.4323 71.8289 23.5213C70.7749 22.8263 66.5819 20.3593 69.3369 13.7253C70.6309 15.2353 71.9419 16.2643 73.2709 16.8093C74.1559 17.1723 74.3729 17.1643 74.7779 17.2203V17.2193Z" fill="white"/>
</g>
</g>
</g>
</g>
<g filter="url(#filter2_i_2001_349)">
<g clip-path="url(#clip6_2001_349)">
<rect x="112" width="40" height="40" rx="8" fill="#05041F" fill-opacity="0.08"/>
<rect x="112.5" y="0.5" width="39" height="39" rx="7.5" stroke="white" stroke-opacity="0.08"/>
<rect x="112" width="40" height="40" fill="url(#paint2_radial_2001_349)"/>
<g clip-path="url(#clip7_2001_349)">
<path d="M132 11C129.613 11 127.324 11.9482 125.636 13.636C123.948 15.3239 123 17.6131 123 20C123 22.3869 123.948 24.6761 125.636 26.364C127.324 28.0518 129.613 29 132 29C134.387 29 136.676 28.0518 138.364 26.364C140.052 24.6761 141 22.3869 141 20C141 17.6131 140.052 15.3239 138.364 13.636C136.676 11.9482 134.387 11 132 11ZM134.372 27.3372H134.302C134.25 27.3402 134.198 27.3324 134.148 27.3144C134.099 27.2963 134.054 27.2684 134.016 27.2323C133.981 27.1951 133.953 27.1512 133.935 27.1033C133.917 27.0554 133.909 27.0044 133.911 26.9532V25.8988C133.916 25.5485 133.918 25.1937 133.918 24.8368C133.917 24.5757 133.879 24.3161 133.805 24.0658C133.735 23.8126 133.594 23.5849 133.399 23.4095C133.921 23.359 134.435 23.2403 134.927 23.0563C135.342 22.8985 135.717 22.6517 136.027 22.3333C136.332 22.013 136.559 21.626 136.691 21.2037C136.85 20.6866 136.926 20.1473 136.916 19.6063C136.918 19.2285 136.852 18.8533 136.721 18.4992C136.587 18.1424 136.384 17.8152 136.124 17.5363C136.18 17.3955 136.221 17.2492 136.246 17.0998C136.27 16.9498 136.283 16.7982 136.283 16.6467C136.283 16.4517 136.261 16.2568 136.216 16.067C136.175 15.8724 136.119 15.6811 136.05 15.4948C136.023 15.4844 135.995 15.4793 135.967 15.4798H135.884C135.712 15.4812 135.542 15.5097 135.379 15.563C135.199 15.6156 135.022 15.6807 134.851 15.758C134.681 15.8342 134.516 15.9201 134.356 16.0152C134.194 16.1105 134.052 16.202 133.926 16.2867C132.664 15.9351 131.33 15.9351 130.069 16.2867C129.928 16.1927 129.785 16.1022 129.64 16.0152C129.477 15.9193 129.309 15.8336 129.136 15.7587C128.965 15.6789 128.788 15.6134 128.607 15.563C128.447 15.5101 128.279 15.482 128.111 15.4798H128.028C128 15.4794 127.972 15.4844 127.945 15.4948C127.875 15.6814 127.817 15.8725 127.773 16.067C127.733 16.2575 127.713 16.4517 127.712 16.6467C127.712 16.7982 127.725 16.9498 127.751 17.0998C127.775 17.249 127.815 17.3953 127.871 17.5363C127.611 17.8156 127.41 18.143 127.277 18.5C127.144 18.8539 127.077 19.2291 127.079 19.607C127.069 20.1452 127.143 20.6817 127.298 21.197C127.434 21.6192 127.661 22.007 127.961 22.334C128.273 22.6505 128.648 22.8965 129.061 23.057C129.551 23.2445 130.064 23.3645 130.586 23.414C130.44 23.5461 130.324 23.708 130.247 23.8888C130.173 24.0675 130.122 24.2551 130.096 24.4468C129.821 24.5785 129.52 24.6477 129.215 24.6493C128.932 24.6606 128.652 24.5818 128.417 24.4242C128.19 24.2566 127.999 24.0468 127.852 23.8063C127.787 23.7052 127.714 23.6094 127.634 23.5198C127.549 23.4254 127.455 23.3393 127.355 23.2625C127.255 23.1882 127.146 23.1277 127.03 23.0825C126.917 23.0326 126.794 23.0068 126.67 23.0068C126.64 23.0075 126.61 23.0105 126.58 23.0142C126.539 23.0141 126.498 23.0192 126.458 23.0292C126.423 23.0384 126.39 23.0536 126.361 23.0743C126.347 23.0817 126.336 23.0925 126.328 23.1057C126.32 23.1189 126.316 23.1339 126.316 23.1493C126.319 23.1853 126.33 23.2203 126.348 23.2517C126.366 23.283 126.391 23.31 126.421 23.3307C126.49 23.3862 126.548 23.429 126.595 23.459L126.617 23.4747C126.717 23.552 126.813 23.6353 126.904 23.7245C126.988 23.798 127.063 23.8812 127.129 23.972C127.196 24.0612 127.255 24.1565 127.302 24.2577C127.357 24.3582 127.415 24.4737 127.475 24.605C127.616 24.9605 127.867 25.2612 128.191 25.4637C128.53 25.646 128.912 25.7367 129.298 25.727C129.428 25.727 129.559 25.7195 129.689 25.7045C129.818 25.6835 129.946 25.6617 130.076 25.6362V26.9435C130.078 26.9962 130.069 27.0488 130.05 27.0979C130.03 27.147 130.001 27.1914 129.963 27.2283C129.925 27.2651 129.88 27.2936 129.831 27.3119C129.781 27.3302 129.728 27.3378 129.676 27.3342H129.629C127.88 26.7692 126.39 25.5984 125.428 24.0325C124.466 22.4666 124.094 20.6085 124.38 18.7929C124.666 16.9774 125.591 15.3235 126.988 14.1293C128.385 12.935 130.163 12.2788 132.001 12.2788C133.839 12.2788 135.616 12.935 137.013 14.1293C138.41 15.3235 139.335 16.9774 139.621 18.7929C139.907 20.6085 139.536 22.4666 138.573 24.0325C137.611 25.5984 136.121 26.7692 134.372 27.3342V27.3372Z" fill="white"/>
</g>
</g>
</g>
<g filter="url(#filter3_i_2001_349)">
<g clip-path="url(#clip8_2001_349)">
<rect x="168" width="40" height="40" rx="8" fill="#05041F" fill-opacity="0.08"/>
<rect x="168.5" y="0.5" width="39" height="39" rx="7.5" stroke="white" stroke-opacity="0.08"/>
<rect x="168" width="40" height="40" fill="url(#paint3_radial_2001_349)"/>
<g clip-path="url(#clip9_2001_349)">
<g clip-path="url(#clip10_2001_349)">
<path d="M184.374 24.9596L184.927 25.2836C186.21 26.0299 187.721 26.2837 189.177 25.9976C190.634 25.7116 191.936 24.9052 192.842 23.7291C193.747 22.553 194.194 21.0876 194.098 19.6064C194.002 18.1252 193.37 16.7296 192.321 15.6801C191.271 14.6305 189.875 13.9988 188.394 13.903C186.913 13.8071 185.448 14.2535 184.272 15.159C183.095 16.0644 182.289 17.367 182.003 18.8234C181.717 20.2799 181.971 21.7906 182.717 23.0736L183.04 23.6266L182.54 25.4606L184.374 24.9606V24.9596ZM180.364 27.6396L181.397 23.8436C180.464 22.2399 180.146 20.3513 180.503 18.5304C180.861 16.7096 181.868 15.0811 183.339 13.9489C184.809 12.8168 186.641 12.2585 188.492 12.3782C190.344 12.498 192.089 13.2876 193.401 14.5997C194.713 15.9118 195.503 17.6566 195.622 19.5083C195.742 21.36 195.184 23.1919 194.052 24.6621C192.92 26.1323 191.291 27.1401 189.47 27.4974C187.649 27.8547 185.761 27.537 184.157 26.6036L180.364 27.6396ZM185.244 16.4156C185.346 16.4082 185.449 16.4071 185.551 16.4126L185.675 16.4246C185.796 16.4386 185.93 16.5126 185.975 16.6146C186.203 17.1316 186.425 17.6516 186.638 18.1736C186.686 18.2896 186.658 18.4386 186.568 18.5836C186.505 18.6816 186.438 18.7766 186.366 18.8676C186.28 18.9776 186.094 19.1816 186.094 19.1816C186.094 19.1816 186.019 19.2716 186.048 19.3836C186.058 19.4266 186.094 19.4886 186.126 19.5406L186.171 19.6136C186.366 19.9396 186.629 20.2706 186.95 20.5816C187.041 20.6706 187.13 20.7616 187.227 20.8466C187.585 21.1621 187.99 21.4199 188.427 21.6106L188.43 21.6116C188.495 21.6396 188.528 21.6556 188.623 21.6956C188.67 21.7156 188.719 21.7326 188.769 21.7456C188.82 21.7586 188.874 21.7561 188.924 21.7385C188.974 21.7209 189.017 21.6889 189.049 21.6466C189.602 20.9766 189.653 20.9336 189.657 20.9336V20.9346C189.696 20.8989 189.741 20.8717 189.791 20.855C189.841 20.8383 189.894 20.8324 189.946 20.8376C189.992 20.8397 190.038 20.8498 190.081 20.8676C190.487 21.0536 191.151 21.3436 191.151 21.3436L191.595 21.5436C191.67 21.5786 191.738 21.6636 191.74 21.7456C191.743 21.7956 191.748 21.8786 191.73 22.0306C191.708 22.223 191.66 22.4114 191.587 22.5906C191.546 22.6753 191.492 22.753 191.427 22.8206C191.35 22.9016 191.265 22.9752 191.174 23.0406C191.143 23.0643 191.111 23.0873 191.079 23.1096C190.984 23.1696 190.886 23.2256 190.786 23.2776C190.589 23.3821 190.372 23.4422 190.15 23.4536C190.008 23.4606 189.867 23.4716 189.725 23.4636L189.291 23.3976C188.205 23.1119 187.201 22.5767 186.358 21.8346C186.185 21.6826 186.026 21.5196 185.862 21.3566C185.182 20.6806 184.669 19.9506 184.357 19.2616C184.197 18.9235 184.111 18.5555 184.104 18.1816C184.101 17.7183 184.253 17.2672 184.535 16.8996C184.591 16.8276 184.644 16.7526 184.735 16.6666C184.801 16.598 184.876 16.5394 184.959 16.4926C185.048 16.4481 185.144 16.4219 185.243 16.4156H185.244Z" fill="white"/>
</g>
</g>
</g>
</g>
<g filter="url(#filter4_i_2001_349)">
<g clip-path="url(#clip11_2001_349)">
<rect x="224" width="40" height="40" rx="8" fill="#05041F" fill-opacity="0.08"/>
<rect x="224.5" y="0.5" width="39" height="39" rx="7.5" stroke="white" stroke-opacity="0.08"/>
<rect x="224" width="40" height="40" fill="url(#paint4_radial_2001_349)"/>
<g clip-path="url(#clip12_2001_349)">
<path d="M240.625 25.8711H238.164V17.9258H240.625V25.8711ZM240.871 15.3944C240.871 14.5988 240.225 13.9531 239.43 13.9531C238.632 13.9531 237.988 14.5988 237.988 15.3944C237.988 16.1902 238.632 16.8359 239.43 16.8359C240.225 16.8359 240.871 16.1902 240.871 15.3944ZM249.836 21.4999C249.836 19.3671 249.385 17.7852 246.894 17.7852C245.697 17.7852 244.893 18.3839 244.565 19.0066H244.562V17.9258H242.172V25.8711H244.562V21.9262C244.562 20.8931 244.825 19.8922 246.106 19.8922C247.369 19.8922 247.41 21.0736 247.41 21.9918V25.8711H249.836V21.4999ZM253 26.8906V13.1094C253 11.9462 252.054 11 250.891 11H237.109C235.946 11 235 11.9462 235 13.1094V26.8906C235 28.0538 235.946 29 237.109 29H250.891C252.054 29 253 28.0538 253 26.8906ZM250.891 12.4062C251.278 12.4062 251.594 12.7217 251.594 13.1094V26.8906C251.594 27.2783 251.278 27.5938 250.891 27.5938H237.109C236.722 27.5938 236.406 27.2783 236.406 26.8906V13.1094C236.406 12.7217 236.722 12.4062 237.109 12.4062H250.891Z" fill="white"/>
</g>
</g>
</g>
<defs>
<filter id="filter0_i_2001_349" x="0" y="0" width="40" height="40" filterUnits="userSpaceOnUse" color-interpolation-filters="sRGB">
<feFlood flood-opacity="0" result="BackgroundImageFix"/>
<feBlend mode="normal" in="SourceGraphic" in2="BackgroundImageFix" result="shape"/>
<feColorMatrix in="SourceAlpha" type="matrix" values="0 0 0 0 0 0 0 0 0 0 0 0 0 0 0 0 0 0 127 0" result="hardAlpha"/>
<feMorphology radius="0.82" operator="erode" in="SourceAlpha" result="effect1_innerShadow_2001_349"/>
<feOffset/>
<feGaussianBlur stdDeviation="4"/>
<feComposite in2="hardAlpha" operator="arithmetic" k2="-1" k3="1"/>
<feColorMatrix type="matrix" values="0 0 0 0 1 0 0 0 0 1 0 0 0 0 1 0 0 0 0.12 0"/>
<feBlend mode="normal" in2="shape" result="effect1_innerShadow_2001_349"/>
</filter>
<filter id="filter1_i_2001_349" x="56" y="0" width="40" height="40" filterUnits="userSpaceOnUse" color-interpolation-filters="sRGB">
<feFlood flood-opacity="0" result="BackgroundImageFix"/>
<feBlend mode="normal" in="SourceGraphic" in2="BackgroundImageFix" result="shape"/>
<feColorMatrix in="SourceAlpha" type="matrix" values="0 0 0 0 0 0 0 0 0 0 0 0 0 0 0 0 0 0 127 0" result="hardAlpha"/>
<feMorphology radius="0.82" operator="erode" in="SourceAlpha" result="effect1_innerShadow_2001_349"/>
<feOffset/>
<feGaussianBlur stdDeviation="4"/>
<feComposite in2="hardAlpha" operator="arithmetic" k2="-1" k3="1"/>
<feColorMatrix type="matrix" values="0 0 0 0 1 0 0 0 0 1 0 0 0 0 1 0 0 0 0.12 0"/>
<feBlend mode="normal" in2="shape" result="effect1_innerShadow_2001_349"/>
</filter>
<filter id="filter2_i_2001_349" x="112" y="0" width="40" height="40" filterUnits="userSpaceOnUse" color-interpolation-filters="sRGB">
<feFlood flood-opacity="0" result="BackgroundImageFix"/>
<feBlend mode="normal" in="SourceGraphic" in2="BackgroundImageFix" result="shape"/>
<feColorMatrix in="SourceAlpha" type="matrix" values="0 0 0 0 0 0 0 0 0 0 0 0 0 0 0 0 0 0 127 0" result="hardAlpha"/>
<feMorphology radius="0.82" operator="erode" in="SourceAlpha" result="effect1_innerShadow_2001_349"/>
<feOffset/>
<feGaussianBlur stdDeviation="4"/>
<feComposite in2="hardAlpha" operator="arithmetic" k2="-1" k3="1"/>
<feColorMatrix type="matrix" values="0 0 0 0 1 0 0 0 0 1 0 0 0 0 1 0 0 0 0.12 0"/>
<feBlend mode="normal" in2="shape" result="effect1_innerShadow_2001_349"/>
</filter>
<filter id="filter3_i_2001_349" x="168" y="0" width="40" height="40" filterUnits="userSpaceOnUse" color-interpolation-filters="sRGB">
<feFlood flood-opacity="0" result="BackgroundImageFix"/>
<feBlend mode="normal" in="SourceGraphic" in2="BackgroundImageFix" result="shape"/>
<feColorMatrix in="SourceAlpha" type="matrix" values="0 0 0 0 0 0 0 0 0 0 0 0 0 0 0 0 0 0 127 0" result="hardAlpha"/>
<feMorphology radius="0.82" operator="erode" in="SourceAlpha" result="effect1_innerShadow_2001_349"/>
<feOffset/>
<feGaussianBlur stdDeviation="4"/>
<feComposite in2="hardAlpha" operator="arithmetic" k2="-1" k3="1"/>
<feColorMatrix type="matrix" values="0 0 0 0 1 0 0 0 0 1 0 0 0 0 1 0 0 0 0.12 0"/>
<feBlend mode="normal" in2="shape" result="effect1_innerShadow_2001_349"/>
</filter>
<filter id="filter4_i_2001_349" x="224" y="0" width="40" height="40" filterUnits="userSpaceOnUse" color-interpolation-filters="sRGB">
<feFlood flood-opacity="0" result="BackgroundImageFix"/>
<feBlend mode="normal" in="SourceGraphic" in2="BackgroundImageFix" result="shape"/>
<feColorMatrix in="SourceAlpha" type="matrix" values="0 0 0 0 0 0 0 0 0 0 0 0 0 0 0 0 0 0 127 0" result="hardAlpha"/>
<feMorphology radius="0.82" operator="erode" in="SourceAlpha" result="effect1_innerShadow_2001_349"/>
<feOffset/>
<feGaussianBlur stdDeviation="4"/>
<feComposite in2="hardAlpha" operator="arithmetic" k2="-1" k3="1"/>
<feColorMatrix type="matrix" values="0 0 0 0 1 0 0 0 0 1 0 0 0 0 1 0 0 0 0.12 0"/>
<feBlend mode="normal" in2="shape" result="effect1_innerShadow_2001_349"/>
</filter>
<radialGradient id="paint0_radial_2001_349" cx="0" cy="0" r="1" gradientUnits="userSpaceOnUse" gradientTransform="translate(20 40) scale(40)">
<stop stop-color="white" stop-opacity="0.04"/>
<stop offset="1" stop-color="white" stop-opacity="0"/>
</radialGradient>
<radialGradient id="paint1_radial_2001_349" cx="0" cy="0" r="1" gradientUnits="userSpaceOnUse" gradientTransform="translate(76 40) scale(40)">
<stop stop-color="white" stop-opacity="0.04"/>
<stop offset="1" stop-color="white" stop-opacity="0"/>
</radialGradient>
<radialGradient id="paint2_radial_2001_349" cx="0" cy="0" r="1" gradientUnits="userSpaceOnUse" gradientTransform="translate(132 40) scale(40)">
<stop stop-color="white" stop-opacity="0.04"/>
<stop offset="1" stop-color="white" stop-opacity="0"/>
</radialGradient>
<radialGradient id="paint3_radial_2001_349" cx="0" cy="0" r="1" gradientUnits="userSpaceOnUse" gradientTransform="translate(188 40) scale(40)">
<stop stop-color="white" stop-opacity="0.04"/>
<stop offset="1" stop-color="white" stop-opacity="0"/>
</radialGradient>
<radialGradient id="paint4_radial_2001_349" cx="0" cy="0" r="1" gradientUnits="userSpaceOnUse" gradientTransform="translate(244 40) scale(40)">
<stop stop-color="white" stop-opacity="0.04"/>
<stop offset="1" stop-color="white" stop-opacity="0"/>
</radialGradient>
<clipPath id="clip0_2001_349">
<rect width="40" height="40" rx="8" fill="white"/>
</clipPath>
<clipPath id="clip1_2001_349">
<rect width="24" height="24" fill="white" transform="translate(8 8)"/>
</clipPath>
<clipPath id="clip2_2001_349">
<rect width="24" height="24" fill="white" transform="translate(8 8)"/>
</clipPath>
<clipPath id="clip3_2001_349">
<rect x="56" width="40" height="40" rx="8" fill="white"/>
</clipPath>
<clipPath id="clip4_2001_349">
<rect width="24" height="24" fill="white" transform="translate(64 8)"/>
</clipPath>
<clipPath id="clip5_2001_349">
<rect width="24" height="24" fill="white" transform="translate(64 8)"/>
</clipPath>
<clipPath id="clip6_2001_349">
<rect x="112" width="40" height="40" rx="8" fill="white"/>
</clipPath>
<clipPath id="clip7_2001_349">
<rect width="18" height="18" fill="white" transform="translate(123 11)"/>
</clipPath>
<clipPath id="clip8_2001_349">
<rect x="168" width="40" height="40" rx="8" fill="white"/>
</clipPath>
<clipPath id="clip9_2001_349">
<rect width="24" height="24" fill="white" transform="translate(176 8)"/>
</clipPath>
<clipPath id="clip10_2001_349">
<rect width="24" height="24" fill="white" transform="translate(176 8)"/>
</clipPath>
<clipPath id="clip11_2001_349">
<rect x="224" width="40" height="40" rx="8" fill="white"/>
</clipPath>
<clipPath id="clip12_2001_349">
<rect width="18" height="18" fill="white" transform="translate(235 11)"/>
</clipPath>
</defs>
</svg>
