<svg width="46" height="46" viewBox="0 0 46 46" fill="none" xmlns="http://www.w3.org/2000/svg">
<g opacity="0.2">
<path d="M39.8906 23C39.8906 23.2859 39.777 23.5602 39.5749 23.7624C39.3727 23.9645 39.0984 24.0781 38.8125 24.0781H24.0781V38.8125C24.0781 39.0984 23.9645 39.3727 23.7624 39.5749C23.5602 39.777 23.2859 39.8906 23 39.8906C22.7141 39.8906 22.4398 39.777 22.2377 39.5749C22.0355 39.3727 21.9219 39.0984 21.9219 38.8125V24.0781H7.1875C6.90156 24.0781 6.62734 23.9645 6.42515 23.7624C6.22296 23.5602 6.10938 23.2859 6.10938 23C6.10938 22.7141 6.22296 22.4398 6.42515 22.2377C6.62734 22.0355 6.90156 21.9219 7.1875 21.9219H21.9219V7.1875C21.9219 6.90156 22.0355 6.62734 22.2377 6.42515C22.4398 6.22296 22.7141 6.10938 23 6.10938C23.2859 6.10938 23.5602 6.22296 23.7624 6.42515C23.9645 6.62734 24.0781 6.90156 24.0781 7.1875V21.9219H38.8125C39.0984 21.9219 39.3727 22.0355 39.5749 22.2377C39.777 22.4398 39.8906 22.7141 39.8906 23Z" fill="#E4ECFF"/>
</g>
</svg>
