<svg width="26" height="16" viewBox="0 0 26 16" fill="none" xmlns="http://www.w3.org/2000/svg">
<path fill-rule="evenodd" clip-rule="evenodd" d="M12.8338 0C9.41124 0 7.27268 1.72202 6.41666 5.16605C7.70019 3.44404 9.19748 2.79841 10.9085 3.22866C11.8848 3.47408 12.5828 4.18692 13.3549 4.97613C14.6133 6.26128 16.0698 7.74857 19.2505 7.74857C22.6726 7.74857 24.8116 6.02655 25.6671 2.58303C24.3841 4.30504 22.8868 4.95067 21.1758 4.51991C20.1991 4.27449 19.501 3.56165 18.7289 2.77295C17.4705 1.48678 16.0145 0 12.8338 0ZM6.41666 7.74857C2.99458 7.74857 0.855521 9.47059 0 12.9146C1.28353 11.1926 2.78082 10.547 4.49136 10.9772C5.46809 11.2226 6.16619 11.9355 6.93822 12.7247C8.19661 14.0099 9.65265 15.4971 12.8338 15.4971C16.2559 15.4971 18.395 13.7756 19.2505 10.3316C17.9669 12.0536 16.4697 12.6992 14.7586 12.269C13.7824 12.0231 13.0843 11.3102 12.3123 10.5215C11.0539 9.23637 9.59733 7.74857 6.41666 7.74857Z" fill="#38BDF8"/>
</svg>
