<svg width="235" height="51" viewBox="0 0 235 51" fill="none" xmlns="http://www.w3.org/2000/svg">
<circle cx="25.1247" cy="25.1247" r="24.8602" fill="url(#paint0_linear_2001_166)" stroke="url(#paint1_linear_2001_166)" stroke-width="0.526653"/>
<path d="M26.0642 27.9663C27.3974 27.9663 28.4781 26.8851 28.4781 25.5514C28.4781 24.2176 27.3974 23.1364 26.0642 23.1364C24.731 23.1364 23.6503 24.2176 23.6503 25.5514C23.6503 26.8851 24.731 27.9663 26.0642 27.9663Z" fill="#00D8FF"/>
<path d="M26.064 31.0837C22.674 31.0837 19.7119 30.6844 17.4952 29.9243C16.0574 29.4336 14.836 28.7794 13.9657 28.0337C13.0424 27.2448 12.552 26.3837 12.552 25.5514C12.552 23.9543 14.3023 22.3908 17.2403 21.3709C19.6446 20.5339 22.7798 20.0672 26.0592 20.0672C29.281 20.0672 32.3729 20.5194 34.7628 21.3469C36.1621 21.8279 37.3402 22.4533 38.1769 23.1461C39.0857 23.9061 39.5665 24.7384 39.5665 25.5514C39.5665 27.2111 37.6094 28.89 34.455 29.934C32.2238 30.6748 29.2425 31.0837 26.064 31.0837ZM26.064 21.2218C22.9529 21.2218 19.8754 21.674 17.625 22.4581C14.9226 23.401 13.7108 24.6903 13.7108 25.5514C13.7108 26.4462 15.0139 27.8557 17.8702 28.8323C19.9668 29.5491 22.8038 29.9291 26.064 29.9291C29.1223 29.9291 31.9738 29.5443 34.0944 28.8371C37.0613 27.8509 38.4173 26.4414 38.4173 25.5514C38.4173 25.0944 38.0711 24.5556 37.4411 24.0312C36.715 23.4251 35.6572 22.8718 34.3925 22.4341C32.118 21.6547 29.1608 21.2218 26.064 21.2218Z" fill="#00D8FF"/>
<path d="M20.5872 37.5876C20.0968 37.5876 19.664 37.4818 19.2985 37.2701C17.9185 36.4715 17.4376 34.172 18.0195 31.1172C18.4955 28.6109 19.6592 25.6667 21.2989 22.8236C22.9098 20.0334 24.8428 17.5799 26.7518 15.9202C27.8674 14.9485 28.9974 14.2365 30.0169 13.8613C31.1276 13.4523 32.0894 13.4523 32.7914 13.8564C34.2292 14.6839 34.7052 17.2239 34.032 20.476C33.556 22.7851 32.4212 25.5705 30.8343 28.327C29.1417 31.2616 27.3144 33.6284 25.5497 35.1727C24.4053 36.1733 23.2272 36.9045 22.15 37.2846C21.5874 37.4866 21.0585 37.5876 20.5872 37.5876ZM21.7942 23.1122L22.2943 23.4009C20.7411 26.0949 19.5919 28.9861 19.1495 31.3337C18.6157 34.148 19.1302 35.8413 19.8708 36.2695C20.0535 36.3753 20.2939 36.4331 20.5872 36.4331C21.5442 36.4331 23.0492 35.8269 24.7899 34.3067C26.4585 32.8491 28.204 30.5784 29.8341 27.7546C31.3633 25.1039 32.45 22.4387 32.902 20.2499C33.5319 17.1855 32.9886 15.3093 32.2144 14.8619C31.8201 14.6358 31.1805 14.6646 30.4112 14.9485C29.5216 15.2756 28.5166 15.9154 27.5068 16.7958C25.694 18.3737 23.8427 20.7213 22.2943 23.4057L21.7942 23.1122Z" fill="#00D8FF"/>
<path d="M31.5413 37.6024C30.2334 37.6024 28.5744 36.8134 26.8433 35.3221C24.9103 33.6576 22.9436 31.1801 21.299 28.337C19.6834 25.5468 18.5293 22.6459 18.0436 20.1588C17.7599 18.706 17.707 17.3734 17.8898 16.3006C18.0917 15.1316 18.5678 14.2994 19.2746 13.8905C20.7076 13.0582 23.1455 13.9145 25.6267 16.1226C27.3867 17.6861 29.2332 20.0626 30.8248 22.8143C32.5222 25.7488 33.6619 28.515 34.1139 30.8145C34.4072 32.3058 34.4553 33.6913 34.2485 34.817C34.0273 36.0149 33.5272 36.8664 32.806 37.2849C32.4453 37.4966 32.0173 37.6024 31.5413 37.6024ZM22.2992 27.7597C23.8572 30.4537 25.7902 32.8927 27.5983 34.4466C29.7669 36.3131 31.4884 36.7172 32.2337 36.2843C33.0079 35.8369 33.5753 34.004 32.9887 31.0406C32.5559 28.8662 31.4644 26.2203 29.8294 23.3964C28.2955 20.7457 26.5308 18.4702 24.8622 16.9886C22.5252 14.9103 20.6306 14.4437 19.8565 14.8911C19.4622 15.1172 19.1688 15.6897 19.0294 16.4979C18.8707 17.4311 18.9188 18.6242 19.1785 19.9375C19.6401 22.2996 20.746 25.0753 22.2992 27.7597Z" fill="#00D8FF"/>
<circle cx="71.2175" cy="25.1247" r="24.8602" fill="url(#paint2_linear_2001_166)" stroke="url(#paint3_linear_2001_166)" stroke-width="0.526653"/>
<path fill-rule="evenodd" clip-rule="evenodd" d="M71.1866 17.8142C67.7571 17.8142 65.6142 19.5397 64.7564 22.9907C66.0426 21.2652 67.5429 20.6183 69.2574 21.0494C70.2356 21.2953 70.9351 22.0096 71.7087 22.8004C72.9696 24.0881 74.4291 25.5784 77.6162 25.5784C81.0452 25.5784 83.1885 23.8529 84.0458 20.4024C82.7602 22.1279 81.2598 22.7749 79.5454 22.3432C78.5666 22.0973 77.8671 21.383 77.0935 20.5927C75.8326 19.304 74.3736 17.8142 71.1866 17.8142ZM64.7564 25.5784C61.3274 25.5784 59.1841 27.3039 58.3268 30.7549C59.613 29.0294 61.1133 28.3825 62.8273 28.8136C63.806 29.0595 64.5055 29.7738 65.2791 30.5646C66.54 31.8523 67.999 33.3426 71.1866 33.3426C74.6155 33.3426 76.7589 31.6176 77.6162 28.1666C76.33 29.8921 74.8297 30.5391 73.1152 30.108C72.137 29.8615 71.4375 29.1473 70.6639 28.357C69.403 27.0692 67.9435 25.5784 64.7564 25.5784Z" fill="#38BDF8"/>
<circle cx="117.31" cy="25.1247" r="24.8602" fill="url(#paint4_linear_2001_166)" stroke="url(#paint5_linear_2001_166)" stroke-width="0.526653"/>
<g clip-path="url(#clip0_2001_166)">
<path d="M126.181 13.5541H109.347C107.355 13.5541 105.74 15.1691 105.74 17.1614V33.9953C105.74 35.9875 107.355 37.6025 109.347 37.6025H126.181C128.173 37.6025 129.788 35.9875 129.788 33.9953V17.1614C129.788 15.1691 128.173 13.5541 126.181 13.5541Z" fill="#3178C6"/>
<path d="M116.684 26.8936H119.69V24.9678H111.282V26.8936H114.288V35.489H116.684V26.8936ZM120.629 35.0193C121.01 35.2166 121.475 35.3622 121.991 35.4608C122.508 35.5595 123.072 35.6065 123.635 35.6065C124.199 35.6065 124.716 35.5548 125.232 35.4468C125.749 35.3387 126.172 35.1602 126.547 34.9301C126.928 34.6812 127.252 34.3665 127.44 33.9437C127.628 33.521 127.773 33.0513 127.773 32.4407C127.773 32.0133 127.708 31.6422 127.581 31.3134C127.454 30.9846 127.271 30.7028 127.017 30.468C126.778 30.219 126.5 29.9983 126.172 29.8104C125.843 29.6225 125.467 29.4253 125.044 29.2468C124.734 29.1199 124.481 28.9978 124.199 28.8757C123.955 28.7536 123.743 28.6315 123.588 28.5093C123.415 28.3825 123.283 28.251 123.189 28.1148C123.095 27.9739 123.048 27.8189 123.048 27.6451C123.048 27.4854 123.09 27.3398 123.175 27.2083C123.26 27.0768 123.377 26.9687 123.527 26.8748C123.678 26.7809 123.865 26.7104 124.091 26.6587C124.312 26.6071 124.556 26.5836 124.842 26.5836C125.04 26.5836 125.246 26.5982 125.453 26.6277C125.669 26.6573 125.89 26.7029 126.111 26.764C126.331 26.825 126.547 26.9002 126.768 26.9941C126.975 27.088 127.167 27.1961 127.332 27.3182V25.1106C126.975 24.9744 126.58 24.8711 126.158 24.8053C125.735 24.7396 125.265 24.7067 124.702 24.7067C124.138 24.7067 123.621 24.7677 123.105 24.8852C122.588 25.0026 122.165 25.1905 121.789 25.4488C121.409 25.7024 121.132 26.0124 120.897 26.4352C120.676 26.8297 120.568 27.2806 120.568 27.8443C120.568 28.5488 120.77 29.1594 121.179 29.6291C121.583 30.1458 122.212 30.5215 123.011 30.8973C123.335 31.0288 123.621 31.1603 123.903 31.2871C124.185 31.4139 124.42 31.5455 124.608 31.6817C124.81 31.8179 124.969 31.9682 125.077 32.1279C125.195 32.2876 125.256 32.4755 125.256 32.6915C125.256 32.8418 125.219 32.9827 125.148 33.1142C125.076 33.2458 124.965 33.3585 124.814 33.4524C124.664 33.5464 124.481 33.6215 124.251 33.6779C124.03 33.7295 123.781 33.7577 123.452 33.7577C122.935 33.7577 122.419 33.6685 121.949 33.49C121.432 33.3115 120.963 33.0438 120.629 32.7648V35.0193Z" fill="white"/>
</g>
<circle cx="163.403" cy="25.1247" r="24.8602" fill="url(#paint6_linear_2001_166)" stroke="url(#paint7_linear_2001_166)" stroke-width="0.526653"/>
<g clip-path="url(#clip1_2001_166)">
<path d="M158.284 36.9148L152.584 14.2454L175.129 20.5769" fill="white"/>
<path d="M161.069 27.1715L162.493 32.8417" stroke="black" stroke-width="0.48" stroke-miterlimit="10"/>
<path d="M166.694 28.7647L161.069 27.1715" stroke="black" stroke-width="0.48" stroke-miterlimit="10"/>
<path d="M162.493 32.8416L166.694 28.7647" stroke="black" stroke-width="0.48" stroke-miterlimit="10"/>
<path d="M162.493 32.8416L156.868 31.2484" stroke="black" stroke-width="0.48" stroke-miterlimit="10"/>
<path d="M156.868 31.2484L158.292 36.9224L162.493 32.8416" stroke="black" stroke-width="0.48" stroke-miterlimit="10"/>
<path d="M156.868 31.2484L161.069 27.1715" stroke="black" stroke-width="0.48" stroke-miterlimit="10"/>
<path d="M161.069 27.1715L165.273 23.0908" stroke="black" stroke-width="0.48" stroke-miterlimit="10"/>
<path d="M165.273 23.0907L169.474 19.0138" stroke="black" stroke-width="0.48" stroke-miterlimit="10"/>
<path d="M163.849 17.4206L165.273 23.0908" stroke="black" stroke-width="0.48" stroke-miterlimit="10"/>
<path d="M165.273 23.0908L159.644 21.5013" stroke="black" stroke-width="0.48" stroke-miterlimit="10"/>
<path d="M159.644 21.5013L161.069 27.1715" stroke="black" stroke-width="0.48" stroke-miterlimit="10"/>
<path d="M161.069 27.1715L155.444 25.5783" stroke="black" stroke-width="0.48" stroke-miterlimit="10"/>
<path d="M155.444 25.5783L156.868 31.2484" stroke="black" stroke-width="0.48" stroke-miterlimit="10"/>
<path d="M154.019 19.9081L155.444 25.5782" stroke="black" stroke-width="0.48" stroke-miterlimit="10"/>
<path d="M159.644 21.5013L154.019 19.9081" stroke="black" stroke-width="0.48" stroke-miterlimit="10"/>
<path d="M155.444 25.5783L159.644 21.5013" stroke="black" stroke-width="0.48" stroke-miterlimit="10"/>
<path d="M159.644 21.4975L163.849 17.4206" stroke="black" stroke-width="0.48" stroke-miterlimit="10"/>
<path d="M163.849 17.4206L158.22 15.8274" stroke="black" stroke-width="0.48" stroke-miterlimit="10"/>
<path d="M158.22 15.8274L159.644 21.4975" stroke="black" stroke-width="0.48" stroke-miterlimit="10"/>
<path d="M154.019 19.908L152.595 14.2341L158.22 15.8273" stroke="black" stroke-width="0.48" stroke-miterlimit="10"/>
<path d="M154.019 19.9081L158.22 15.8274" stroke="black" stroke-width="0.48" stroke-miterlimit="10"/>
<path d="M170.898 24.6839L175.099 20.607L169.474 19.0138" stroke="black" stroke-width="0.48" stroke-miterlimit="10"/>
<path d="M169.474 19.0138L170.898 24.6839" stroke="black" stroke-width="0.48" stroke-miterlimit="10"/>
<path d="M170.898 24.684L165.273 23.0908" stroke="black" stroke-width="0.48" stroke-miterlimit="10"/>
<path d="M165.273 23.0908L166.694 28.7647" stroke="black" stroke-width="0.48" stroke-miterlimit="10"/>
<path d="M166.694 28.7647L170.898 24.6839" stroke="black" stroke-width="0.48" stroke-miterlimit="10"/>
<path d="M169.474 19.0138L163.849 17.4206" stroke="black" stroke-width="0.48" stroke-miterlimit="10"/>
</g>
<circle cx="209.496" cy="25.1247" r="24.8602" fill="url(#paint8_linear_2001_166)" stroke="url(#paint9_linear_2001_166)" stroke-width="0.526653"/>
<g clip-path="url(#clip2_2001_166)">
<path d="M217.264 17.4592L214.554 20.1051C214.469 20.1881 214.358 20.2409 214.238 20.2548C214.119 20.2688 213.998 20.2431 213.895 20.182C212.829 19.5541 211.6 19.241 210.355 19.2804C209.111 19.3198 207.905 19.7101 206.883 20.4041C206.255 20.8313 205.709 21.3642 205.271 21.978C204.562 22.9765 204.162 24.154 204.122 25.369C204.081 26.5839 204.401 27.7844 205.042 28.8261C205.104 28.9263 205.13 29.0438 205.116 29.1602C205.102 29.2765 205.048 29.3848 204.963 29.4678L202.254 32.1136C202.199 32.1673 202.133 32.2088 202.061 32.2352C201.988 32.2618 201.911 32.2726 201.834 32.2672C201.756 32.2617 201.681 32.24 201.613 32.2035C201.546 32.1671 201.487 32.1167 201.441 32.0559C199.975 30.0882 199.217 27.7019 199.286 25.2695C199.355 22.837 200.247 20.4953 201.822 18.6099C202.303 18.033 202.843 17.5057 203.434 17.036C205.365 15.4981 207.763 14.6276 210.253 14.5602C212.744 14.4928 215.188 15.2324 217.203 16.6636C217.266 16.7084 217.317 16.7659 217.355 16.8322C217.393 16.8986 217.415 16.9721 217.421 17.0477C217.427 17.1233 217.416 17.1993 217.389 17.2703C217.361 17.3414 217.319 17.4058 217.264 17.4592Z" fill="url(#paint10_linear_2001_166)"/>
<path d="M217.261 33.6877L214.552 31.0418C214.467 30.9588 214.355 30.9061 214.236 30.8921C214.116 30.8781 213.995 30.9038 213.893 30.9648C212.888 31.5568 211.736 31.8698 210.562 31.8698C209.389 31.8698 208.237 31.5568 207.232 30.9648C207.129 30.9038 207.008 30.8781 206.889 30.8921C206.769 30.9061 206.658 30.9588 206.573 31.0418L203.863 33.6877C203.806 33.741 203.762 33.8059 203.734 33.8777C203.706 33.9496 203.694 34.0266 203.7 34.1034C203.705 34.1802 203.728 34.2548 203.767 34.3219C203.805 34.3892 203.858 34.4472 203.922 34.492C205.851 35.8624 208.175 36.6005 210.561 36.6005C212.946 36.6005 215.27 35.8624 217.199 34.492C217.263 34.4475 217.316 34.3896 217.355 34.3226C217.394 34.2555 217.417 34.181 217.423 34.1042C217.429 34.0275 217.418 33.9503 217.39 33.8784C217.362 33.8064 217.318 33.7412 217.261 33.6877Z" fill="white"/>
<path d="M210.567 28.7215C212.348 28.7215 213.791 27.3123 213.791 25.5738C213.791 23.8354 212.348 22.4261 210.567 22.4261C208.787 22.4261 207.344 23.8354 207.344 25.5738C207.344 27.3123 208.787 28.7215 210.567 28.7215Z" fill="white"/>
</g>
<defs>
<linearGradient id="paint0_linear_2001_166" x1="10.6747" y1="0.528802" x2="48.1161" y2="9.44667" gradientUnits="userSpaceOnUse">
<stop stop-color="#04071D"/>
<stop offset="1" stop-color="#0C0E23"/>
</linearGradient>
<linearGradient id="paint1_linear_2001_166" x1="25.1257" y1="0.528802" x2="25.1257" y2="49.7226" gradientUnits="userSpaceOnUse">
<stop stop-color="#66699C" stop-opacity="0.43"/>
<stop offset="1" stop-color="#363749" stop-opacity="0.49"/>
</linearGradient>
<linearGradient id="paint2_linear_2001_166" x1="56.8605" y1="0.528802" x2="94.3019" y2="9.44667" gradientUnits="userSpaceOnUse">
<stop stop-color="#04071D"/>
<stop offset="1" stop-color="#0C0E23"/>
</linearGradient>
<linearGradient id="paint3_linear_2001_166" x1="71.3116" y1="0.528802" x2="71.3116" y2="49.7226" gradientUnits="userSpaceOnUse">
<stop stop-color="#66699C" stop-opacity="0.43"/>
<stop offset="1" stop-color="#363749" stop-opacity="0.49"/>
</linearGradient>
<linearGradient id="paint4_linear_2001_166" x1="103.046" y1="0.528802" x2="140.488" y2="9.44667" gradientUnits="userSpaceOnUse">
<stop stop-color="#04071D"/>
<stop offset="1" stop-color="#0C0E23"/>
</linearGradient>
<linearGradient id="paint5_linear_2001_166" x1="117.497" y1="0.528802" x2="117.497" y2="49.7226" gradientUnits="userSpaceOnUse">
<stop stop-color="#66699C" stop-opacity="0.43"/>
<stop offset="1" stop-color="#363749" stop-opacity="0.49"/>
</linearGradient>
<linearGradient id="paint6_linear_2001_166" x1="149.232" y1="0.528802" x2="186.674" y2="9.44667" gradientUnits="userSpaceOnUse">
<stop stop-color="#04071D"/>
<stop offset="1" stop-color="#0C0E23"/>
</linearGradient>
<linearGradient id="paint7_linear_2001_166" x1="163.683" y1="0.528802" x2="163.683" y2="49.7226" gradientUnits="userSpaceOnUse">
<stop stop-color="#66699C" stop-opacity="0.43"/>
<stop offset="1" stop-color="#363749" stop-opacity="0.49"/>
</linearGradient>
<linearGradient id="paint8_linear_2001_166" x1="195.418" y1="0.528802" x2="232.86" y2="9.44667" gradientUnits="userSpaceOnUse">
<stop stop-color="#04071D"/>
<stop offset="1" stop-color="#0C0E23"/>
</linearGradient>
<linearGradient id="paint9_linear_2001_166" x1="209.869" y1="0.528802" x2="209.869" y2="49.7226" gradientUnits="userSpaceOnUse">
<stop stop-color="#66699C" stop-opacity="0.43"/>
<stop offset="1" stop-color="#363749" stop-opacity="0.49"/>
</linearGradient>
<linearGradient id="paint10_linear_2001_166" x1="214.717" y1="12.9405" x2="192.409" y2="35.7883" gradientUnits="userSpaceOnUse">
<stop stop-color="#17CCFC"/>
<stop offset="0.5" stop-color="#5D31FF"/>
<stop offset="1" stop-color="#F35AFF"/>
</linearGradient>
<clipPath id="clip0_2001_166">
<rect width="24" height="24" fill="white" transform="translate(105.74 13.5541) scale(1.00202)"/>
</clipPath>
<clipPath id="clip1_2001_166">
<rect width="24" height="24" fill="white" transform="translate(151.832 13.554) scale(1.00202)"/>
</clipPath>
<clipPath id="clip2_2001_166">
<rect width="20.9" height="22" fill="white" transform="translate(199.282 14.556) scale(1.00202)"/>
</clipPath>
</defs>
</svg>
