<svg width="235" height="51" viewBox="0 0 235 51" fill="none" xmlns="http://www.w3.org/2000/svg">
<circle cx="25.1246" cy="25.1246" r="24.8603" fill="url(#paint0_linear_2001_233)" stroke="url(#paint1_linear_2001_233)" stroke-width="0.526653"/>
<g clip-path="url(#clip0_2001_233)">
<path d="M24.3191 12.8329C24.2662 12.8377 24.0979 12.8545 23.9464 12.8665C20.4528 13.1815 17.1805 15.0662 15.1079 17.9631C13.9538 19.5738 13.2156 21.4009 12.9367 23.3361C12.8381 24.0116 12.8261 24.2112 12.8261 25.1271C12.8261 26.0431 12.8381 26.2426 12.9367 26.9181C13.6051 31.5363 16.8919 35.4164 21.3497 36.854C22.1479 37.1113 22.9895 37.2867 23.9464 37.3925C24.3191 37.4334 25.93 37.4334 26.3027 37.3925C27.9545 37.2098 29.3539 36.8011 30.734 36.0967C30.9456 35.9886 30.9865 35.9597 30.9576 35.9357C30.9384 35.9213 30.0367 34.712 28.9548 33.2504L26.988 30.5939L24.5235 26.947C23.1674 24.942 22.0517 23.3025 22.0421 23.3025C22.0325 23.3001 22.0229 24.9204 22.0181 26.8989C22.0109 30.3631 22.0085 30.5025 21.9652 30.5843C21.9027 30.7021 21.8546 30.7502 21.7536 30.8031C21.6767 30.8415 21.6093 30.8487 21.2463 30.8487H20.8303L20.7197 30.779C20.6476 30.7333 20.5947 30.6732 20.5586 30.6035L20.5081 30.4953L20.5129 25.6752L20.5201 20.8527L20.5947 20.759C20.6332 20.7085 20.7149 20.6436 20.7726 20.6123C20.8712 20.5643 20.9097 20.5594 21.3256 20.5594C21.8161 20.5594 21.8979 20.5787 22.0253 20.7181C22.0614 20.7566 23.3958 22.7664 24.9923 25.1872C26.5888 27.6081 28.772 30.9136 29.8444 32.5364L31.7919 35.4861L31.8905 35.4212C32.7633 34.8539 33.6866 34.0461 34.4175 33.2047C35.9732 31.4185 36.9758 29.2404 37.3124 26.9181C37.411 26.2426 37.423 26.0431 37.423 25.1271C37.423 24.2112 37.411 24.0116 37.3124 23.3361C36.644 18.718 33.3572 14.8378 28.8995 13.4002C28.1132 13.1454 27.2765 12.9699 26.3388 12.8641C26.108 12.8401 24.5187 12.8136 24.3191 12.8329ZM29.3539 20.271C29.4693 20.3287 29.5631 20.4392 29.5967 20.5546C29.616 20.6171 29.6208 21.9538 29.616 24.966L29.6087 29.2885L28.8466 28.1201L28.082 26.9518V23.8097C28.082 21.7783 28.0916 20.6364 28.106 20.5811C28.1445 20.4465 28.2286 20.3407 28.344 20.2782C28.4426 20.2277 28.4787 20.2229 28.8562 20.2229C29.212 20.2229 29.2745 20.2277 29.3539 20.271Z" fill="white"/>
</g>
<circle cx="71.2175" cy="25.1246" r="24.8603" fill="url(#paint2_linear_2001_233)" stroke="url(#paint3_linear_2001_233)" stroke-width="0.526653"/>
<path fill-rule="evenodd" clip-rule="evenodd" d="M71.2776 18.1144C67.7406 18.1144 65.5305 19.894 64.6459 23.4532C65.9723 21.6736 67.5197 21.0064 69.2879 21.451C70.2968 21.7046 71.0183 22.4413 71.8161 23.2569C73.1166 24.585 74.6219 26.1221 77.9089 26.1221C81.4454 26.1221 83.656 24.3425 84.5401 20.7838C83.2142 22.5634 81.6668 23.2306 79.8986 22.7854C78.8892 22.5318 78.1677 21.7951 77.3699 20.9801C76.0694 19.6509 74.5647 18.1144 71.2776 18.1144ZM64.6459 26.1221C61.1093 26.1221 58.8987 27.9017 58.0146 31.4609C59.3411 29.6813 60.8884 29.0141 62.6562 29.4587C63.6656 29.7123 64.387 30.449 65.1849 31.2646C66.4853 32.5928 67.9901 34.1298 71.2776 34.1298C74.8142 34.1298 77.0248 32.3507 77.9089 28.7915C76.5824 30.5711 75.0351 31.2383 73.2668 30.7937C72.2579 30.5395 71.5365 29.8028 70.7386 28.9878C69.4382 27.6596 67.9329 26.1221 64.6459 26.1221Z" fill="#38BDF8"/>
<circle cx="117.31" cy="25.1246" r="24.8603" fill="url(#paint4_linear_2001_233)" stroke="url(#paint5_linear_2001_233)" stroke-width="0.526653"/>
<g clip-path="url(#clip1_2001_233)">
<path d="M125.919 12.8262H108.701C106.664 12.8262 105.012 14.4781 105.012 16.5158V33.7336C105.012 35.7713 106.664 37.4232 108.701 37.4232H125.919C127.957 37.4232 129.609 35.7713 129.609 33.7336V16.5158C129.609 14.4781 127.957 12.8262 125.919 12.8262Z" fill="#3178C6"/>
<path d="M116.206 26.4699H119.28V24.5002H110.681V26.4699H113.755V35.2614H116.206V26.4699ZM120.241 34.781C120.63 34.9828 121.106 35.1317 121.634 35.2326C122.163 35.3335 122.739 35.3815 123.316 35.3815C123.892 35.3815 124.421 35.3287 124.949 35.2182C125.477 35.1077 125.91 34.9251 126.294 34.6897C126.683 34.4351 127.015 34.1132 127.207 33.6809C127.399 33.2485 127.548 32.7681 127.548 32.1435C127.548 31.7064 127.481 31.3269 127.351 30.9906C127.221 30.6543 127.034 30.366 126.775 30.1258C126.53 29.8712 126.246 29.6454 125.91 29.4533C125.574 29.2611 125.189 29.0593 124.757 28.8768C124.44 28.7471 124.18 28.6222 123.892 28.4972C123.642 28.3723 123.426 28.2474 123.268 28.1225C123.09 27.9928 122.955 27.8583 122.859 27.719C122.763 27.5749 122.715 27.4163 122.715 27.2386C122.715 27.0752 122.758 26.9263 122.845 26.7918C122.932 26.6573 123.051 26.5468 123.205 26.4507C123.359 26.3546 123.551 26.2826 123.782 26.2297C124.007 26.1769 124.257 26.1528 124.55 26.1528C124.752 26.1528 124.963 26.1677 125.175 26.198C125.396 26.2283 125.622 26.2749 125.847 26.3373C126.073 26.3998 126.294 26.4766 126.52 26.5727C126.731 26.6688 126.928 26.7793 127.096 26.9042V24.6463C126.731 24.507 126.328 24.4013 125.895 24.334C125.463 24.2668 124.983 24.2331 124.406 24.2331C123.83 24.2331 123.301 24.2956 122.773 24.4157C122.244 24.5358 121.812 24.728 121.428 24.9922C121.038 25.2516 120.755 25.5687 120.515 26.001C120.289 26.4046 120.179 26.8658 120.179 27.4423C120.179 28.1629 120.385 28.7874 120.803 29.2678C121.216 29.7963 121.86 30.1806 122.677 30.5649C123.008 30.6994 123.301 30.834 123.589 30.9637C123.878 31.0934 124.118 31.2279 124.31 31.3672C124.517 31.5065 124.68 31.6603 124.79 31.8236C124.911 31.9869 124.973 32.1791 124.973 32.4001C124.973 32.5538 124.936 32.6979 124.863 32.8325C124.79 32.967 124.675 33.0823 124.521 33.1783C124.368 33.2744 124.18 33.3513 123.945 33.4089C123.719 33.4618 123.465 33.4906 123.128 33.4906C122.6 33.4906 122.071 33.3993 121.591 33.2168C121.062 33.0342 120.582 32.7604 120.241 32.475V34.781Z" fill="white"/>
</g>
<circle cx="163.403" cy="25.1246" r="24.8603" fill="url(#paint6_linear_2001_233)" stroke="url(#paint7_linear_2001_233)" stroke-width="0.526653"/>
<g clip-path="url(#clip2_2001_233)">
<path fill-rule="evenodd" clip-rule="evenodd" d="M168.007 22.9765L177.439 22.3762C178.074 22.3762 178.528 22.9765 178.165 23.4052L171.544 31.9806C171.362 32.0664 171.181 32.2379 170.909 32.2379H156.034C155.921 32.225 155.813 32.1872 155.719 32.1276C155.624 32.0681 155.546 31.9883 155.49 31.8949L148.869 23.4052C148.506 22.9765 148.869 22.2904 149.503 22.3762L158.936 22.9765L162.927 18.8603C163.199 18.5173 163.834 18.5173 164.016 18.8603L168.007 22.8907V22.9765ZM170.002 30.8658L163.834 28.722V30.8658H170.002ZM163.109 30.8658V28.722L156.941 30.8658H163.199H163.109ZM162.383 28.2932L156.125 30.4371L151.59 24.4343L162.474 28.2075L162.383 28.2932ZM164.56 28.2932L170.909 30.4371L175.444 24.4343L164.56 28.2075V28.2932ZM163.109 27.7787V20.6611L158.029 25.9779L163.109 27.6929V27.7787ZM163.834 27.7787V20.6611L169.004 25.9779L163.834 27.6929V27.7787ZM156.487 25.4633L157.667 24.2628L151.862 23.9198L156.487 25.4633ZM170.455 25.4633L169.276 24.2628L174.991 23.9198L170.455 25.4633Z" fill="#006CFF"/>
</g>
<circle cx="209.496" cy="25.1246" r="24.8603" fill="url(#paint8_linear_2001_233)" stroke="url(#paint9_linear_2001_233)" stroke-width="0.526653"/>
<g clip-path="url(#clip3_2001_233)">
<path d="M216.5 18.0838L213.906 20.6173C213.824 20.6968 213.718 20.7473 213.603 20.7607C213.489 20.774 213.373 20.7495 213.275 20.691C212.254 20.0898 211.077 19.7899 209.885 19.8277C208.694 19.8654 207.539 20.2391 206.561 20.9036C205.959 21.3127 205.436 21.823 205.017 22.4107C204.337 23.3668 203.955 24.4944 203.916 25.6577C203.877 26.8211 204.183 27.9706 204.798 28.9681C204.857 29.0641 204.882 29.1766 204.868 29.2881C204.855 29.3994 204.803 29.5031 204.722 29.5826L202.128 32.1161C202.075 32.1675 202.012 32.2072 201.943 32.2325C201.873 32.258 201.799 32.2683 201.725 32.2632C201.651 32.2579 201.579 32.2371 201.514 32.2022C201.45 32.1673 201.393 32.1191 201.349 32.0609C199.945 30.1767 199.22 27.8916 199.286 25.5625C199.352 23.2333 200.206 20.991 201.714 19.1856C202.175 18.6332 202.692 18.1282 203.258 17.6785C205.107 16.2059 207.403 15.3723 209.788 15.3078C212.173 15.2433 214.512 15.9515 216.442 17.3219C216.502 17.3648 216.552 17.4199 216.588 17.4834C216.624 17.5469 216.645 17.6173 216.651 17.6897C216.657 17.7621 216.646 17.8349 216.62 17.9029C216.594 17.9709 216.553 18.0326 216.5 18.0838Z" fill="url(#paint10_linear_2001_233)"/>
<path d="M216.498 33.6234L213.903 31.0899C213.822 31.0104 213.715 30.9599 213.601 30.9465C213.487 30.9331 213.371 30.9577 213.272 31.0162C212.31 31.583 211.207 31.8827 210.083 31.8827C208.96 31.8827 207.857 31.583 206.895 31.0162C206.796 30.9577 206.68 30.9331 206.566 30.9465C206.452 30.9599 206.345 31.0104 206.263 31.0899L203.669 33.6234C203.614 33.6744 203.572 33.7366 203.545 33.8054C203.518 33.8742 203.507 33.948 203.512 34.0215C203.518 34.095 203.539 34.1664 203.576 34.2307C203.613 34.2951 203.664 34.3507 203.725 34.3936C205.572 35.7058 207.798 36.4126 210.082 36.4126C212.366 36.4126 214.591 35.7058 216.438 34.3936C216.5 34.351 216.551 34.2956 216.588 34.2314C216.625 34.1671 216.647 34.0958 216.653 34.0223C216.659 33.9488 216.648 33.8749 216.621 33.806C216.594 33.7371 216.552 33.6747 216.498 33.6234Z" fill="white"/>
<path d="M210.088 28.868C211.793 28.868 213.175 27.5186 213.175 25.8539C213.175 24.1893 211.793 22.8398 210.088 22.8398C208.383 22.8398 207.001 24.1893 207.001 25.8539C207.001 27.5186 208.383 28.868 210.088 28.868Z" fill="white"/>
</g>
<defs>
<linearGradient id="paint0_linear_2001_233" x1="10.6746" y1="0.528739" x2="48.1161" y2="9.44661" gradientUnits="userSpaceOnUse">
<stop stop-color="#04071D"/>
<stop offset="1" stop-color="#0C0E23"/>
</linearGradient>
<linearGradient id="paint1_linear_2001_233" x1="25.1257" y1="0.528739" x2="25.1257" y2="49.7226" gradientUnits="userSpaceOnUse">
<stop stop-color="#66699C" stop-opacity="0.43"/>
<stop offset="1" stop-color="#363749" stop-opacity="0.49"/>
</linearGradient>
<linearGradient id="paint2_linear_2001_233" x1="56.8605" y1="0.528739" x2="94.3019" y2="9.44661" gradientUnits="userSpaceOnUse">
<stop stop-color="#04071D"/>
<stop offset="1" stop-color="#0C0E23"/>
</linearGradient>
<linearGradient id="paint3_linear_2001_233" x1="71.3116" y1="0.528739" x2="71.3116" y2="49.7226" gradientUnits="userSpaceOnUse">
<stop stop-color="#66699C" stop-opacity="0.43"/>
<stop offset="1" stop-color="#363749" stop-opacity="0.49"/>
</linearGradient>
<linearGradient id="paint4_linear_2001_233" x1="103.046" y1="0.528739" x2="140.488" y2="9.44661" gradientUnits="userSpaceOnUse">
<stop stop-color="#04071D"/>
<stop offset="1" stop-color="#0C0E23"/>
</linearGradient>
<linearGradient id="paint5_linear_2001_233" x1="117.497" y1="0.528739" x2="117.497" y2="49.7226" gradientUnits="userSpaceOnUse">
<stop stop-color="#66699C" stop-opacity="0.43"/>
<stop offset="1" stop-color="#363749" stop-opacity="0.49"/>
</linearGradient>
<linearGradient id="paint6_linear_2001_233" x1="149.232" y1="0.528739" x2="186.674" y2="9.44661" gradientUnits="userSpaceOnUse">
<stop stop-color="#04071D"/>
<stop offset="1" stop-color="#0C0E23"/>
</linearGradient>
<linearGradient id="paint7_linear_2001_233" x1="163.683" y1="0.528739" x2="163.683" y2="49.7226" gradientUnits="userSpaceOnUse">
<stop stop-color="#66699C" stop-opacity="0.43"/>
<stop offset="1" stop-color="#363749" stop-opacity="0.49"/>
</linearGradient>
<linearGradient id="paint8_linear_2001_233" x1="195.418" y1="0.528739" x2="232.86" y2="9.44661" gradientUnits="userSpaceOnUse">
<stop stop-color="#04071D"/>
<stop offset="1" stop-color="#0C0E23"/>
</linearGradient>
<linearGradient id="paint9_linear_2001_233" x1="209.869" y1="0.528739" x2="209.869" y2="49.7226" gradientUnits="userSpaceOnUse">
<stop stop-color="#66699C" stop-opacity="0.43"/>
<stop offset="1" stop-color="#363749" stop-opacity="0.49"/>
</linearGradient>
<linearGradient id="paint10_linear_2001_233" x1="214.062" y1="13.7569" x2="192.701" y2="35.6348" gradientUnits="userSpaceOnUse">
<stop stop-color="#17CCFC"/>
<stop offset="0.5" stop-color="#5D31FF"/>
<stop offset="1" stop-color="#F35AFF"/>
</linearGradient>
<clipPath id="clip0_2001_233">
<rect width="24.5474" height="24.5474" fill="white" transform="translate(12.8261 12.8262) scale(1.00202)"/>
</clipPath>
<clipPath id="clip1_2001_233">
<rect width="24.5474" height="24.5474" fill="white" transform="translate(105.012 12.8262) scale(1.00202)"/>
</clipPath>
<clipPath id="clip2_2001_233">
<rect width="28.9659" height="13.693" fill="white" transform="translate(149.032 18.4701) scale(1.00202)"/>
</clipPath>
<clipPath id="clip3_2001_233">
<rect width="20.0128" height="21.0661" fill="white" transform="translate(199.281 15.3038) scale(1.00202)"/>
</clipPath>
</defs>
</svg>
